<svg width="22" height="22" viewBox="0 0 22 22" fill="none" xmlns="http://www.w3.org/2000/svg">
<path d="M6.891,17.786H5.258V8.305c0-1.021,0.024-1.8,0.074-2.338c-0.18,0.192-0.421,0.415-0.724,0.668L2.716,8.193L1.844,7.071
		l3.664-2.857h1.383V17.786z" fill="white"/>
<path d="M12.902,17.786v-1.429c0.513,0.167,1.069,0.25,1.67,0.25c1.478,0,2.594-0.443,3.349-1.33
		c0.755-0.889,1.166-2.27,1.233-4.143h-0.111c-0.692,1.051-1.771,1.577-3.237,1.577c-1.2,0-2.147-0.365-2.844-1.099
		c-0.695-0.732-1.043-1.733-1.043-3.001c0-1.404,0.391-2.519,1.173-3.345c0.783-0.825,1.836-1.238,3.159-1.238
		c1.392,0,2.505,0.526,3.34,1.577c0.835,1.052,1.253,2.521,1.253,4.407c0,2.653-0.52,4.643-1.559,5.971
		c-1.039,1.326-2.598,1.989-4.676,1.989c-0.291,0-0.604-0.017-0.942-0.052C13.33,17.887,13.075,17.842,12.902,17.786z M13.57,8.592
		c0,0.903,0.221,1.594,0.663,2.073c0.442,0.479,1.087,0.719,1.935,0.719c0.543,0,1.046-0.111,1.507-0.334s0.822-0.53,1.086-0.923
		c0.263-0.393,0.394-0.799,0.394-1.22c-0.006-0.587-0.126-1.153-0.361-1.698c-0.235-0.544-0.574-0.976-1.016-1.294
		c-0.442-0.318-0.951-0.478-1.526-0.478c-0.848,0-1.506,0.275-1.976,0.826C13.805,6.814,13.57,7.59,13.57,8.592z" fill="white"/>
</svg>
