<svg width="22" height="22" viewBox="0 0 22 22" fill="none" xmlns="http://www.w3.org/2000/svg">
<path d="M15.458,17.786H6.496v-1.392l3.554-3.59c0.939-0.953,1.604-1.669,1.989-2.148c0.387-0.479,0.676-0.953,0.868-1.42
		c0.191-0.467,0.287-0.969,0.287-1.507c0-0.711-0.215-1.268-0.645-1.67c-0.43-0.402-1.013-0.603-1.749-0.603
		c-0.594,0-1.138,0.099-1.633,0.297C8.673,5.952,8.129,6.282,7.535,6.746L6.645,5.624c1.274-1.063,2.659-1.596,4.156-1.596
		c1.268,0,2.269,0.325,3.001,0.974c0.733,0.649,1.103,1.528,1.109,2.635c0,0.668-0.135,1.302-0.404,1.902
		c-0.269,0.6-0.632,1.183-1.09,1.749c-0.458,0.565-1.119,1.269-1.985,2.111L8.603,16.19v0.074h6.855V17.786z" fill="white"/>
</svg>
