<svg width="22" height="22" viewBox="0 0 22 22" fill="none" xmlns="http://www.w3.org/2000/svg">
<path d="M10.026,17.786H1.064v-1.392l3.553-3.59c0.94-0.953,1.604-1.669,1.99-2.148c0.387-0.479,0.676-0.953,0.867-1.42
		C7.666,8.77,7.763,8.268,7.763,7.729c0-0.711-0.215-1.268-0.645-1.67C6.688,5.658,6.104,5.457,5.369,5.457
		c-0.594,0-1.139,0.099-1.633,0.297C3.241,5.952,2.697,6.282,2.104,6.746L1.213,5.624C2.486,4.56,3.872,4.028,5.369,4.028
		c1.268,0,2.269,0.325,3.001,0.974C9.104,5.651,9.473,6.53,9.479,7.637c0,0.668-0.134,1.302-0.403,1.902
		c-0.269,0.6-0.633,1.183-1.09,1.749C7.527,11.853,6.865,12.557,6,13.398L3.17,16.19v0.074h6.856V17.786z" fill="white"/>
<path d="M17.754,17.786h-1.633V8.305c0-1.021,0.024-1.8,0.074-2.338c-0.18,0.192-0.421,0.415-0.724,0.668l-1.893,1.559
		l-0.872-1.123l3.664-2.857h1.383V17.786z" fill="white"/>
</svg>
