<svg width="22" height="22" viewBox="0 0 22 22" fill="none" xmlns="http://www.w3.org/2000/svg">
<path d="M10.026,17.786H1.064v-1.392l3.553-3.59c0.94-0.953,1.604-1.669,1.99-2.148c0.387-0.479,0.676-0.953,0.867-1.42
		C7.666,8.77,7.763,8.268,7.763,7.729c0-0.711-0.215-1.268-0.645-1.67C6.688,5.658,6.104,5.457,5.369,5.457
		c-0.594,0-1.139,0.099-1.633,0.297C3.241,5.952,2.697,6.282,2.104,6.746L1.213,5.624C2.486,4.56,3.872,4.028,5.369,4.028
		c1.268,0,2.269,0.325,3.001,0.974C9.104,5.651,9.473,6.53,9.479,7.637c0,0.668-0.134,1.302-0.403,1.902
		c-0.269,0.6-0.633,1.183-1.09,1.749C7.527,11.853,6.865,12.557,6,13.398L3.17,16.19v0.074h6.856V17.786z" fill="white"/>
<path d="M21.502,14.706h-1.977v3.08h-1.613v-3.08h-6.504v-1.429l6.383-9.138h1.734v9.064h1.977V14.706z M17.912,13.203V8.926
		c0-0.754,0.03-1.753,0.092-2.997H17.93c-0.216,0.477-0.488,0.971-0.816,1.484l-4.072,5.789H17.912z" fill="white"/>
</svg>
