<svg width="22" height="22" viewBox="0 0 22 22" fill="none" xmlns="http://www.w3.org/2000/svg">
<path d="M10.026,17.786H1.064v-1.392l3.553-3.59c0.94-0.953,1.604-1.669,1.99-2.148c0.387-0.479,0.676-0.953,0.867-1.42
		C7.666,8.77,7.763,8.268,7.763,7.729c0-0.711-0.215-1.268-0.645-1.67C6.688,5.658,6.104,5.457,5.369,5.457
		c-0.594,0-1.139,0.099-1.633,0.297C3.241,5.952,2.697,6.282,2.104,6.746L1.213,5.624C2.486,4.56,3.872,4.028,5.369,4.028
		c1.268,0,2.269,0.325,3.001,0.974C9.104,5.651,9.473,6.53,9.479,7.637c0,0.668-0.134,1.302-0.403,1.902
		c-0.269,0.6-0.633,1.183-1.09,1.749C7.527,11.853,6.865,12.557,6,13.398L3.17,16.19v0.074h6.856V17.786z" fill="white"/>
<path d="M12.206,17.229v-1.577c0.445,0.272,0.994,0.49,1.646,0.654c0.653,0.164,1.282,0.246,1.889,0.246
		c1.063,0,1.888-0.252,2.472-0.756c0.585-0.505,0.877-1.23,0.877-2.176c0-0.916-0.284-1.604-0.854-2.065
		c-0.569-0.46-1.42-0.691-2.551-0.691c-0.668,0-1.441,0.096-2.319,0.288l-0.835-0.529l0.51-6.411h6.81v1.521H14.47l-0.324,3.934
		c0.772-0.136,1.469-0.204,2.087-0.204c1.41,0,2.523,0.356,3.34,1.067c0.816,0.711,1.225,1.686,1.225,2.922
		c0,1.41-0.444,2.516-1.331,3.316c-0.888,0.802-2.136,1.202-3.743,1.202c-0.73,0-1.399-0.063-2.009-0.19
		S12.602,17.471,12.206,17.229z" fill="white"/>
</svg>
