<svg width="22" height="22" viewBox="0 0 22 22" fill="none" xmlns="http://www.w3.org/2000/svg">
<path d="M10.026,17.786H1.064v-1.392l3.553-3.59c0.94-0.953,1.604-1.669,1.99-2.148c0.387-0.479,0.676-0.953,0.867-1.42
		C7.666,8.77,7.763,8.268,7.763,7.729c0-0.711-0.215-1.268-0.645-1.67C6.688,5.658,6.104,5.457,5.369,5.457
		c-0.594,0-1.139,0.099-1.633,0.297C3.241,5.952,2.697,6.282,2.104,6.746L1.213,5.624C2.486,4.56,3.872,4.028,5.369,4.028
		c1.268,0,2.269,0.325,3.001,0.974C9.104,5.651,9.473,6.53,9.479,7.637c0,0.668-0.134,1.302-0.403,1.902
		c-0.269,0.6-0.633,1.183-1.09,1.749C7.527,11.853,6.865,12.557,6,13.398L3.17,16.19v0.074h6.856V17.786z" fill="white"/>
<path d="M19.916,4.195v1.429c-0.465-0.154-1.009-0.232-1.633-0.232c-1.467,0-2.576,0.442-3.331,1.327
		c-0.755,0.885-1.172,2.273-1.252,4.166h0.111c0.34-0.52,0.783-0.915,1.331-1.188c0.547-0.272,1.176-0.408,1.888-0.408
		c1.193,0,2.146,0.368,2.857,1.104c0.711,0.736,1.067,1.745,1.067,3.024c0,1.41-0.391,2.522-1.17,3.336
		c-0.779,0.812-1.824,1.22-3.135,1.22c-1.404,0-2.525-0.525-3.363-1.577c-0.838-1.051-1.257-2.52-1.257-4.407
		c0-2.653,0.518-4.644,1.554-5.97c1.036-1.327,2.59-1.99,4.662-1.99C18.907,4.028,19.464,4.083,19.916,4.195z M19.303,13.416
		c0-0.891-0.224-1.582-0.672-2.073c-0.449-0.492-1.097-0.738-1.943-0.738c-0.576,0-1.094,0.125-1.555,0.375
		c-0.46,0.251-0.812,0.566-1.053,0.946c-0.241,0.381-0.361,0.769-0.361,1.165c0,0.619,0.125,1.2,0.375,1.744
		c0.251,0.545,0.596,0.969,1.035,1.275c0.438,0.307,0.939,0.459,1.502,0.459c0.848,0,1.505-0.273,1.972-0.82
		S19.303,14.425,19.303,13.416z" fill="white"/>
</svg>
