<svg width="22" height="22" viewBox="0 0 22 22" fill="none" xmlns="http://www.w3.org/2000/svg">
<path d="M10.026,17.786H1.064v-1.392l3.553-3.59c0.94-0.953,1.604-1.669,1.99-2.148c0.387-0.479,0.676-0.953,0.867-1.42
		C7.666,8.77,7.763,8.268,7.763,7.729c0-0.711-0.215-1.268-0.645-1.67C6.688,5.658,6.104,5.457,5.369,5.457
		c-0.594,0-1.139,0.099-1.633,0.297C3.241,5.952,2.697,6.282,2.104,6.746L1.213,5.624C2.486,4.56,3.872,4.028,5.369,4.028
		c1.268,0,2.269,0.325,3.001,0.974C9.104,5.651,9.473,6.53,9.479,7.637c0,0.668-0.134,1.302-0.403,1.902
		c-0.269,0.6-0.633,1.183-1.09,1.749C7.527,11.853,6.865,12.557,6,13.398L3.17,16.19v0.074h6.856V17.786z" fill="white"/>
<path d="M17.912,10.605c1.076,0.526,1.847,1.08,2.314,1.66c0.467,0.582,0.7,1.25,0.7,2.004c0,1.127-0.4,2.024-1.201,2.695
		c-0.802,0.672-1.882,1.007-3.243,1.007c-1.465,0-2.588-0.317-3.367-0.95c-0.779-0.635-1.169-1.533-1.169-2.695
		c0-0.779,0.233-1.471,0.7-2.074c0.468-0.603,1.171-1.121,2.111-1.554c-0.823-0.464-1.426-0.976-1.81-1.536
		c-0.384-0.56-0.572-1.195-0.565-1.906c-0.007-0.983,0.363-1.768,1.108-2.352c0.745-0.585,1.724-0.877,2.937-0.877
		c1.236,0,2.223,0.291,2.959,0.872c0.736,0.582,1.104,1.373,1.104,2.375c0,0.681-0.208,1.293-0.626,1.837
		C19.447,9.656,18.796,10.154,17.912,10.605z M16.14,11.385c-0.896,0.384-1.548,0.811-1.953,1.28
		c-0.404,0.47-0.607,1.03-0.607,1.679c0,0.705,0.249,1.266,0.747,1.68s1.204,0.621,2.119,0.621c0.885,0,1.581-0.211,2.088-0.635
		s0.761-0.998,0.761-1.721c0-0.582-0.225-1.096-0.673-1.541s-1.174-0.862-2.176-1.252L16.14,11.385z M16.502,9.956
		c0.828-0.34,1.425-0.719,1.79-1.136c0.365-0.418,0.548-0.914,0.548-1.489c0-0.606-0.219-1.084-0.654-1.434
		c-0.437-0.349-1.028-0.524-1.777-0.524c-0.729,0-1.311,0.176-1.743,0.529c-0.434,0.353-0.649,0.829-0.649,1.429
		c-0.007,0.551,0.167,1.025,0.52,1.424C14.888,9.154,15.543,9.554,16.502,9.956z" fill="white"/>
</svg>
