<svg width="22" height="22" viewBox="0 0 22 22" fill="none" xmlns="http://www.w3.org/2000/svg">
<path d="M6.705,10.643v0.074c1.058,0.136,1.86,0.477,2.407,1.021c0.548,0.544,0.821,1.274,0.821,2.189
		c0,1.28-0.449,2.274-1.346,2.983c-0.896,0.707-2.184,1.062-3.859,1.062c-1.503,0-2.746-0.247-3.729-0.742v-1.559
		c0.575,0.291,1.192,0.514,1.852,0.668c0.658,0.155,1.29,0.231,1.896,0.231c1.145,0,2.004-0.223,2.579-0.668
		s0.863-1.115,0.863-2.013c0-0.798-0.317-1.396-0.951-1.796c-0.634-0.398-1.585-0.598-2.853-0.598H3.077v-1.429h1.327
		c1.076,0,1.911-0.229,2.505-0.687c0.594-0.458,0.894-1.082,0.899-1.874C7.803,6.857,7.58,6.351,7.141,5.985
		C6.701,5.621,6.099,5.438,5.332,5.438c-0.601,0-1.161,0.083-1.684,0.25c-0.523,0.167-1.1,0.461-1.73,0.881L1.083,5.438
		c1.218-0.94,2.628-1.41,4.23-1.41c1.336,0,2.37,0.302,3.104,0.904c0.732,0.604,1.099,1.421,1.099,2.454
		c0,0.86-0.239,1.569-0.719,2.129C8.317,10.075,7.62,10.451,6.705,10.643z" fill="white"/>
<path d="M12.902,17.786v-1.429c0.513,0.167,1.069,0.25,1.67,0.25c1.478,0,2.594-0.443,3.349-1.33
		c0.755-0.889,1.166-2.27,1.233-4.143h-0.111c-0.692,1.051-1.771,1.577-3.237,1.577c-1.2,0-2.147-0.365-2.844-1.099
		c-0.695-0.732-1.043-1.733-1.043-3.001c0-1.404,0.391-2.519,1.173-3.345c0.783-0.825,1.836-1.238,3.159-1.238
		c1.392,0,2.505,0.526,3.34,1.577c0.835,1.052,1.253,2.521,1.253,4.407c0,2.653-0.52,4.643-1.559,5.971
		c-1.039,1.326-2.598,1.989-4.676,1.989c-0.291,0-0.604-0.017-0.942-0.052C13.33,17.887,13.075,17.842,12.902,17.786z M13.57,8.592
		c0,0.903,0.221,1.594,0.663,2.073c0.442,0.479,1.087,0.719,1.935,0.719c0.543,0,1.046-0.111,1.507-0.334s0.822-0.53,1.086-0.923
		c0.263-0.393,0.394-0.799,0.394-1.22c-0.006-0.587-0.126-1.153-0.361-1.698c-0.235-0.544-0.574-0.976-1.016-1.294
		c-0.442-0.318-0.951-0.478-1.526-0.478c-0.848,0-1.506,0.275-1.976,0.826C13.805,6.814,13.57,7.59,13.57,8.592z" fill="white"/>
</svg>
