<svg width="22" height="22" viewBox="0 0 22 22" fill="none" xmlns="http://www.w3.org/2000/svg">
<path d="M10.639,14.706H8.662v3.08H7.048v-3.08H0.545v-1.429l6.383-9.138h1.734v9.064h1.977V14.706z M7.048,13.203V8.926
		c0-0.754,0.031-1.753,0.093-2.997H7.066C6.85,6.406,6.578,6.901,6.25,7.414l-4.072,5.789H7.048z" fill="white"/>
<path d="M20.89,17.786h-8.962v-1.392l3.554-3.59c0.939-0.953,1.603-1.669,1.989-2.148c0.387-0.479,0.676-0.953,0.867-1.42
		c0.192-0.467,0.288-0.969,0.288-1.507c0-0.711-0.215-1.268-0.645-1.67c-0.431-0.402-1.013-0.603-1.749-0.603
		c-0.594,0-1.138,0.099-1.633,0.297c-0.495,0.198-1.039,0.529-1.633,0.993l-0.891-1.123c1.274-1.063,2.659-1.596,4.156-1.596
		c1.268,0,2.269,0.325,3.001,0.974c0.733,0.649,1.103,1.528,1.108,2.635c0,0.668-0.134,1.302-0.403,1.902
		c-0.269,0.6-0.632,1.183-1.09,1.749c-0.458,0.565-1.119,1.269-1.985,2.111l-2.829,2.792v0.074h6.855V17.786z" fill="white"/>
</svg>
