<svg width="22" height="22" viewBox="0 0 22 22" fill="none" xmlns="http://www.w3.org/2000/svg">
<path d="M1.343,17.229v-1.577c0.445,0.272,0.994,0.49,1.646,0.654s1.281,0.246,1.888,0.246c1.063,0,1.889-0.252,2.473-0.756
		c0.585-0.505,0.877-1.23,0.877-2.176c0-0.916-0.285-1.604-0.854-2.065c-0.569-0.46-1.42-0.691-2.552-0.691
		c-0.668,0-1.441,0.096-2.319,0.288l-0.835-0.529l0.511-6.411h6.81v1.521H3.606L3.281,9.668C4.055,9.533,4.75,9.464,5.369,9.464
		c1.41,0,2.523,0.356,3.34,1.067c0.816,0.711,1.225,1.686,1.225,2.922c0,1.41-0.444,2.516-1.331,3.316
		c-0.888,0.802-2.136,1.202-3.744,1.202c-0.729,0-1.399-0.063-2.008-0.19C2.241,17.654,1.738,17.471,1.343,17.229z" fill="white"/>
<path d="M17.912,10.605c1.076,0.526,1.847,1.08,2.314,1.66c0.467,0.582,0.7,1.25,0.7,2.004c0,1.127-0.4,2.024-1.201,2.695
		c-0.802,0.672-1.882,1.007-3.243,1.007c-1.465,0-2.588-0.317-3.367-0.95c-0.779-0.635-1.169-1.533-1.169-2.695
		c0-0.779,0.233-1.471,0.7-2.074c0.468-0.603,1.171-1.121,2.111-1.554c-0.823-0.464-1.426-0.976-1.81-1.536
		c-0.384-0.56-0.572-1.195-0.565-1.906c-0.007-0.983,0.363-1.768,1.108-2.352c0.745-0.585,1.724-0.877,2.937-0.877
		c1.236,0,2.223,0.291,2.959,0.872c0.736,0.582,1.104,1.373,1.104,2.375c0,0.681-0.208,1.293-0.626,1.837
		C19.447,9.656,18.796,10.154,17.912,10.605z M16.14,11.385c-0.896,0.384-1.548,0.811-1.953,1.28
		c-0.404,0.47-0.607,1.03-0.607,1.679c0,0.705,0.249,1.266,0.747,1.68s1.204,0.621,2.119,0.621c0.885,0,1.581-0.211,2.088-0.635
		s0.761-0.998,0.761-1.721c0-0.582-0.225-1.096-0.673-1.541s-1.174-0.862-2.176-1.252L16.14,11.385z M16.502,9.956
		c0.828-0.34,1.425-0.719,1.79-1.136c0.365-0.418,0.548-0.914,0.548-1.489c0-0.606-0.219-1.084-0.654-1.434
		c-0.437-0.349-1.028-0.524-1.777-0.524c-0.729,0-1.311,0.176-1.743,0.529c-0.434,0.353-0.649,0.829-0.649,1.429
		c-0.007,0.551,0.167,1.025,0.52,1.424C14.888,9.154,15.543,9.554,16.502,9.956z" fill="white"/>
</svg>
