<svg width="22" height="22" viewBox="0 0 22 22" fill="none" xmlns="http://www.w3.org/2000/svg">
<path d="M14.484,4.195v1.429c-0.464-0.154-1.009-0.232-1.633-0.232c-1.466,0-2.576,0.442-3.331,1.327
		c-0.755,0.885-1.172,2.273-1.252,4.166H8.38c0.34-0.52,0.783-0.915,1.331-1.188c0.547-0.272,1.177-0.408,1.888-0.408
		c1.193,0,2.146,0.368,2.857,1.104c0.711,0.736,1.067,1.745,1.067,3.024c0,1.41-0.39,2.522-1.169,3.336
		c-0.779,0.812-1.825,1.22-3.136,1.22c-1.404,0-2.525-0.525-3.363-1.577c-0.838-1.051-1.257-2.52-1.257-4.407
		c0-2.653,0.518-4.644,1.554-5.97c1.036-1.327,2.59-1.99,4.662-1.99C13.476,4.028,14.032,4.083,14.484,4.195z M13.872,13.416
		c0-0.891-0.225-1.582-0.673-2.073c-0.448-0.492-1.097-0.738-1.943-0.738c-0.575,0-1.094,0.125-1.555,0.375
		c-0.46,0.251-0.812,0.566-1.053,0.946c-0.241,0.381-0.361,0.769-0.361,1.165c0,0.619,0.125,1.2,0.375,1.744
		c0.251,0.545,0.596,0.969,1.035,1.275c0.438,0.307,0.939,0.459,1.503,0.459c0.847,0,1.504-0.273,1.971-0.82
		C13.639,15.203,13.872,14.425,13.872,13.416z" fill="white"/>
</svg>
