<svg width="22" height="22" viewBox="0 0 22 22" fill="none" xmlns="http://www.w3.org/2000/svg">
<path d="M9.052,4.195v1.429C8.588,5.469,8.044,5.392,7.419,5.392c-1.466,0-2.576,0.442-3.33,1.327
		c-0.755,0.885-1.173,2.273-1.253,4.166h0.111c0.34-0.52,0.784-0.915,1.332-1.188c0.547-0.272,1.176-0.408,1.888-0.408
		c1.193,0,2.146,0.368,2.857,1.104c0.711,0.736,1.066,1.745,1.066,3.024c0,1.41-0.39,2.522-1.169,3.336
		c-0.779,0.812-1.824,1.22-3.136,1.22c-1.404,0-2.524-0.525-3.362-1.577c-0.839-1.051-1.258-2.52-1.258-4.407
		c0-2.653,0.519-4.644,1.555-5.97c1.035-1.327,2.589-1.99,4.661-1.99C8.044,4.028,8.601,4.083,9.052,4.195z M8.439,13.416
		c0-0.891-0.224-1.582-0.672-2.073c-0.449-0.492-1.097-0.738-1.944-0.738c-0.575,0-1.093,0.125-1.554,0.375
		c-0.461,0.251-0.812,0.566-1.053,0.946c-0.241,0.381-0.362,0.769-0.362,1.165c0,0.619,0.126,1.2,0.376,1.744
		c0.251,0.545,0.595,0.969,1.034,1.275s0.94,0.459,1.503,0.459c0.848,0,1.505-0.273,1.972-0.82S8.439,14.425,8.439,13.416z" fill="white"/>
<path d="M16.437,17.972c-1.472,0-2.587-0.591-3.345-1.772c-0.757-1.181-1.136-2.918-1.136-5.213c0-2.387,0.369-4.147,1.108-5.279
		s1.863-1.698,3.372-1.698c1.466,0,2.585,0.592,3.358,1.776c0.773,1.185,1.16,2.918,1.16,5.2c0,2.35-0.373,4.102-1.118,5.256
		C19.091,17.395,17.958,17.972,16.437,17.972z M16.437,16.553c0.983,0,1.701-0.442,2.152-1.327c0.451-0.884,0.677-2.298,0.677-4.24
		c0-1.936-0.227-3.345-0.682-4.226c-0.454-0.882-1.17-1.322-2.147-1.322c-0.989,0-1.705,0.439-2.147,1.317
		c-0.442,0.878-0.663,2.289-0.663,4.23c0,1.948,0.221,3.364,0.663,4.245S15.447,16.553,16.437,16.553z" fill="white"/>
</svg>
