<svg width="22" height="22" viewBox="0 0 22 22" fill="none" xmlns="http://www.w3.org/2000/svg">
<path d="M9.052,4.195v1.429C8.588,5.469,8.044,5.392,7.419,5.392c-1.466,0-2.576,0.442-3.33,1.327
		c-0.755,0.885-1.173,2.273-1.253,4.166h0.111c0.34-0.52,0.784-0.915,1.332-1.188c0.547-0.272,1.176-0.408,1.888-0.408
		c1.193,0,2.146,0.368,2.857,1.104c0.711,0.736,1.066,1.745,1.066,3.024c0,1.41-0.39,2.522-1.169,3.336
		c-0.779,0.812-1.824,1.22-3.136,1.22c-1.404,0-2.524-0.525-3.362-1.577c-0.839-1.051-1.258-2.52-1.258-4.407
		c0-2.653,0.519-4.644,1.555-5.97c1.035-1.327,2.589-1.99,4.661-1.99C8.044,4.028,8.601,4.083,9.052,4.195z M8.439,13.416
		c0-0.891-0.224-1.582-0.672-2.073c-0.449-0.492-1.097-0.738-1.944-0.738c-0.575,0-1.093,0.125-1.554,0.375
		c-0.461,0.251-0.812,0.566-1.053,0.946c-0.241,0.381-0.362,0.769-0.362,1.165c0,0.619,0.126,1.2,0.376,1.744
		c0.251,0.545,0.595,0.969,1.034,1.275s0.94,0.459,1.503,0.459c0.848,0,1.505-0.273,1.972-0.82S8.439,14.425,8.439,13.416z" fill="white"/>
<path d="M20.89,17.786h-8.962v-1.392l3.554-3.59c0.939-0.953,1.603-1.669,1.989-2.148c0.387-0.479,0.676-0.953,0.867-1.42
		c0.192-0.467,0.288-0.969,0.288-1.507c0-0.711-0.215-1.268-0.645-1.67c-0.431-0.402-1.013-0.603-1.749-0.603
		c-0.594,0-1.138,0.099-1.633,0.297c-0.495,0.198-1.039,0.529-1.633,0.993l-0.891-1.123c1.274-1.063,2.659-1.596,4.156-1.596
		c1.268,0,2.269,0.325,3.001,0.974c0.733,0.649,1.103,1.528,1.108,2.635c0,0.668-0.134,1.302-0.403,1.902
		c-0.269,0.6-0.632,1.183-1.09,1.749c-0.458,0.565-1.119,1.269-1.985,2.111l-2.829,2.792v0.074h6.855V17.786z" fill="white"/>
</svg>
