<svg width="22" height="22" viewBox="0 0 22 22" fill="none" xmlns="http://www.w3.org/2000/svg">
<path d="M2.734,17.786L8.301,5.735H0.98V4.213h9.102v1.299L4.571,17.786H2.734z" fill="white"/>
<path d="M17.568,10.643v0.074c1.058,0.136,1.86,0.477,2.407,1.021c0.548,0.544,0.821,1.274,0.821,2.189
		c0,1.28-0.448,2.274-1.346,2.983c-0.896,0.707-2.183,1.062-3.858,1.062c-1.503,0-2.746-0.247-3.729-0.742v-1.559
		c0.575,0.291,1.191,0.514,1.851,0.668c0.658,0.155,1.291,0.231,1.897,0.231c1.144,0,2.004-0.223,2.578-0.668
		c0.576-0.445,0.863-1.115,0.863-2.013c0-0.798-0.317-1.396-0.951-1.796c-0.634-0.398-1.585-0.598-2.853-0.598h-1.308v-1.429h1.326
		c1.076,0,1.911-0.229,2.505-0.687c0.594-0.458,0.894-1.082,0.899-1.874c-0.006-0.649-0.229-1.156-0.668-1.521
		c-0.438-0.365-1.042-0.547-1.809-0.547c-0.6,0-1.161,0.083-1.684,0.25s-1.1,0.461-1.73,0.881l-0.835-1.132
		c1.219-0.94,2.629-1.41,4.23-1.41c1.336,0,2.37,0.302,3.104,0.904c0.732,0.604,1.099,1.421,1.099,2.454
		c0,0.86-0.239,1.569-0.719,2.129C19.181,10.075,18.483,10.451,17.568,10.643z" fill="white"/>
</svg>
