<svg width="22" height="22" viewBox="0 0 22 22" fill="none" xmlns="http://www.w3.org/2000/svg">
<path d="M12.48,10.605c1.076,0.526,1.848,1.08,2.314,1.66c0.467,0.582,0.7,1.25,0.7,2.004c0,1.127-0.4,2.024-1.201,2.695
		c-0.801,0.672-1.882,1.007-3.242,1.007c-1.466,0-2.589-0.317-3.368-0.95c-0.779-0.635-1.169-1.533-1.169-2.695
		c0-0.779,0.233-1.471,0.7-2.074c0.468-0.603,1.171-1.121,2.111-1.554C8.503,10.234,7.9,9.723,7.517,9.163
		c-0.384-0.56-0.572-1.195-0.565-1.906C6.944,6.273,7.314,5.489,8.06,4.905c0.745-0.585,1.724-0.877,2.937-0.877
		c1.236,0,2.223,0.291,2.959,0.872c0.736,0.582,1.104,1.373,1.104,2.375c0,0.681-0.209,1.293-0.627,1.837
		C14.016,9.656,13.364,10.154,12.48,10.605z M10.708,11.385c-0.896,0.384-1.548,0.811-1.953,1.28
		c-0.404,0.47-0.607,1.03-0.607,1.679c0,0.705,0.249,1.266,0.747,1.68s1.204,0.621,2.12,0.621c0.884,0,1.58-0.211,2.087-0.635
		s0.761-0.998,0.761-1.721c0-0.582-0.224-1.096-0.673-1.541c-0.448-0.445-1.173-0.862-2.175-1.252L10.708,11.385z M11.07,9.956
		c0.828-0.34,1.425-0.719,1.79-1.136c0.365-0.418,0.548-0.914,0.548-1.489c0-0.606-0.219-1.084-0.654-1.434
		c-0.437-0.349-1.028-0.524-1.776-0.524c-0.73,0-1.312,0.176-1.744,0.529C8.8,6.254,8.584,6.731,8.584,7.331
		c-0.007,0.551,0.167,1.025,0.52,1.424C9.456,9.154,10.111,9.554,11.07,9.956z" fill="white"/>
</svg>
