<svg width="22" height="22" viewBox="0 0 22 22" fill="none" xmlns="http://www.w3.org/2000/svg">
<path d="M7.048,10.605c1.076,0.526,1.848,1.08,2.315,1.66c0.467,0.582,0.7,1.25,0.7,2.004c0,1.127-0.4,2.024-1.201,2.695
		c-0.802,0.672-1.883,1.007-3.243,1.007c-1.466,0-2.588-0.317-3.367-0.95c-0.779-0.635-1.169-1.533-1.169-2.695
		c0-0.779,0.233-1.471,0.7-2.074c0.467-0.603,1.17-1.121,2.11-1.554c-0.822-0.464-1.426-0.976-1.809-1.536
		c-0.384-0.56-0.572-1.195-0.566-1.906C1.513,6.273,1.882,5.489,2.628,4.905C3.373,4.32,4.352,4.028,5.563,4.028
		c1.237,0,2.224,0.291,2.96,0.872c0.735,0.582,1.104,1.373,1.104,2.375c0,0.681-0.208,1.293-0.626,1.837
		C8.584,9.656,7.933,10.154,7.048,10.605z M5.276,11.385c-0.897,0.384-1.548,0.811-1.953,1.28s-0.607,1.03-0.607,1.679
		c0,0.705,0.249,1.266,0.747,1.68c0.497,0.414,1.204,0.621,2.119,0.621c0.885,0,1.58-0.211,2.088-0.635
		c0.507-0.424,0.761-0.998,0.761-1.721c0-0.582-0.225-1.096-0.673-1.541s-1.174-0.862-2.176-1.252L5.276,11.385z M5.638,9.956
		c0.829-0.34,1.426-0.719,1.791-1.136c0.364-0.418,0.547-0.914,0.547-1.489c0-0.606-0.218-1.084-0.653-1.434
		C6.886,5.548,6.293,5.373,5.545,5.373c-0.729,0-1.312,0.176-1.744,0.529S3.151,6.731,3.151,7.331
		c-0.006,0.551,0.167,1.025,0.52,1.424C4.023,9.154,4.679,9.554,5.638,9.956z" fill="white"/>
<path d="M16.437,17.972c-1.472,0-2.587-0.591-3.345-1.772c-0.757-1.181-1.136-2.918-1.136-5.213c0-2.387,0.369-4.147,1.108-5.279
		s1.863-1.698,3.372-1.698c1.466,0,2.585,0.592,3.358,1.776c0.773,1.185,1.16,2.918,1.16,5.2c0,2.35-0.373,4.102-1.118,5.256
		C19.091,17.395,17.958,17.972,16.437,17.972z M16.437,16.553c0.983,0,1.701-0.442,2.152-1.327c0.451-0.884,0.677-2.298,0.677-4.24
		c0-1.936-0.227-3.345-0.682-4.226c-0.454-0.882-1.17-1.322-2.147-1.322c-0.989,0-1.705,0.439-2.147,1.317
		c-0.442,0.878-0.663,2.289-0.663,4.23c0,1.948,0.221,3.364,0.663,4.245S15.447,16.553,16.437,16.553z" fill="white"/>
</svg>
