<svg width="22" height="22" viewBox="0 0 22 22" fill="none" xmlns="http://www.w3.org/2000/svg">
<path d="M7.048,10.605c1.076,0.526,1.848,1.08,2.315,1.66c0.467,0.582,0.7,1.25,0.7,2.004c0,1.127-0.4,2.024-1.201,2.695
		c-0.802,0.672-1.883,1.007-3.243,1.007c-1.466,0-2.588-0.317-3.367-0.95c-0.779-0.635-1.169-1.533-1.169-2.695
		c0-0.779,0.233-1.471,0.7-2.074c0.467-0.603,1.17-1.121,2.11-1.554c-0.822-0.464-1.426-0.976-1.809-1.536
		c-0.384-0.56-0.572-1.195-0.566-1.906C1.513,6.273,1.882,5.489,2.628,4.905C3.373,4.32,4.352,4.028,5.563,4.028
		c1.237,0,2.224,0.291,2.96,0.872c0.735,0.582,1.104,1.373,1.104,2.375c0,0.681-0.208,1.293-0.626,1.837
		C8.584,9.656,7.933,10.154,7.048,10.605z M5.276,11.385c-0.897,0.384-1.548,0.811-1.953,1.28s-0.607,1.03-0.607,1.679
		c0,0.705,0.249,1.266,0.747,1.68c0.497,0.414,1.204,0.621,2.119,0.621c0.885,0,1.58-0.211,2.088-0.635
		c0.507-0.424,0.761-0.998,0.761-1.721c0-0.582-0.225-1.096-0.673-1.541s-1.174-0.862-2.176-1.252L5.276,11.385z M5.638,9.956
		c0.829-0.34,1.426-0.719,1.791-1.136c0.364-0.418,0.547-0.914,0.547-1.489c0-0.606-0.218-1.084-0.653-1.434
		C6.886,5.548,6.293,5.373,5.545,5.373c-0.729,0-1.312,0.176-1.744,0.529S3.151,6.731,3.151,7.331
		c-0.006,0.551,0.167,1.025,0.52,1.424C4.023,9.154,4.679,9.554,5.638,9.956z" fill="white"/>
<path d="M19.916,4.195v1.429c-0.465-0.154-1.009-0.232-1.633-0.232c-1.467,0-2.576,0.442-3.331,1.327
		c-0.755,0.885-1.172,2.273-1.252,4.166h0.111c0.34-0.52,0.783-0.915,1.331-1.188c0.547-0.272,1.176-0.408,1.888-0.408
		c1.193,0,2.146,0.368,2.857,1.104c0.711,0.736,1.067,1.745,1.067,3.024c0,1.41-0.391,2.522-1.17,3.336
		c-0.779,0.812-1.824,1.22-3.135,1.22c-1.404,0-2.525-0.525-3.363-1.577c-0.838-1.051-1.257-2.52-1.257-4.407
		c0-2.653,0.518-4.644,1.554-5.97c1.036-1.327,2.59-1.99,4.662-1.99C18.907,4.028,19.464,4.083,19.916,4.195z M19.303,13.416
		c0-0.891-0.224-1.582-0.672-2.073c-0.449-0.492-1.097-0.738-1.943-0.738c-0.576,0-1.094,0.125-1.555,0.375
		c-0.46,0.251-0.812,0.566-1.053,0.946c-0.241,0.381-0.361,0.769-0.361,1.165c0,0.619,0.125,1.2,0.375,1.744
		c0.251,0.545,0.596,0.969,1.035,1.275c0.438,0.307,0.939,0.459,1.502,0.459c0.848,0,1.505-0.273,1.972-0.82
		S19.303,14.425,19.303,13.416z" fill="white"/>
</svg>
