<svg width="22" height="22" viewBox="0 0 22 22" fill="none" xmlns="http://www.w3.org/2000/svg">
<path d="M2.038,17.786v-1.429c0.514,0.167,1.07,0.25,1.67,0.25c1.479,0,2.595-0.443,3.35-1.33c0.754-0.889,1.165-2.27,1.233-4.143
		H8.18c-0.692,1.051-1.771,1.577-3.237,1.577c-1.2,0-2.147-0.365-2.844-1.099c-0.695-0.732-1.044-1.733-1.044-3.001
		c0-1.404,0.392-2.519,1.174-3.345c0.782-0.825,1.835-1.238,3.159-1.238c1.392,0,2.505,0.526,3.34,1.577
		c0.835,1.052,1.252,2.521,1.252,4.407c0,2.653-0.52,4.643-1.559,5.971c-1.039,1.326-2.598,1.989-4.676,1.989
		c-0.291,0-0.604-0.017-0.941-0.052C2.467,17.887,2.211,17.842,2.038,17.786z M2.706,8.592c0,0.903,0.222,1.594,0.664,2.073
		c0.441,0.479,1.086,0.719,1.934,0.719c0.544,0,1.047-0.111,1.508-0.334s0.822-0.53,1.086-0.923c0.263-0.393,0.394-0.799,0.394-1.22
		C8.285,8.32,8.164,7.754,7.93,7.21C7.694,6.666,7.355,6.234,6.914,5.916C6.472,5.597,5.963,5.438,5.388,5.438
		c-0.848,0-1.507,0.275-1.977,0.826C2.941,6.814,2.706,7.59,2.706,8.592z" fill="white"/>
<path d="M16.437,17.972c-1.472,0-2.587-0.591-3.345-1.772c-0.757-1.181-1.136-2.918-1.136-5.213c0-2.387,0.369-4.147,1.108-5.279
		s1.863-1.698,3.372-1.698c1.466,0,2.585,0.592,3.358,1.776c0.773,1.185,1.16,2.918,1.16,5.2c0,2.35-0.373,4.102-1.118,5.256
		C19.091,17.395,17.958,17.972,16.437,17.972z M16.437,16.553c0.983,0,1.701-0.442,2.152-1.327c0.451-0.884,0.677-2.298,0.677-4.24
		c0-1.936-0.227-3.345-0.682-4.226c-0.454-0.882-1.17-1.322-2.147-1.322c-0.989,0-1.705,0.439-2.147,1.317
		c-0.442,0.878-0.663,2.289-0.663,4.23c0,1.948,0.221,3.364,0.663,4.245S15.447,16.553,16.437,16.553z" fill="white"/>
</svg>
