<svg width="22" height="22" viewBox="0 0 22 22" fill="none" xmlns="http://www.w3.org/2000/svg">
<path d="M2.038,17.786v-1.429c0.514,0.167,1.07,0.25,1.67,0.25c1.479,0,2.595-0.443,3.35-1.33c0.754-0.889,1.165-2.27,1.233-4.143
		H8.18c-0.692,1.051-1.771,1.577-3.237,1.577c-1.2,0-2.147-0.365-2.844-1.099c-0.695-0.732-1.044-1.733-1.044-3.001
		c0-1.404,0.392-2.519,1.174-3.345c0.782-0.825,1.835-1.238,3.159-1.238c1.392,0,2.505,0.526,3.34,1.577
		c0.835,1.052,1.252,2.521,1.252,4.407c0,2.653-0.52,4.643-1.559,5.971c-1.039,1.326-2.598,1.989-4.676,1.989
		c-0.291,0-0.604-0.017-0.941-0.052C2.467,17.887,2.211,17.842,2.038,17.786z M2.706,8.592c0,0.903,0.222,1.594,0.664,2.073
		c0.441,0.479,1.086,0.719,1.934,0.719c0.544,0,1.047-0.111,1.508-0.334s0.822-0.53,1.086-0.923c0.263-0.393,0.394-0.799,0.394-1.22
		C8.285,8.32,8.164,7.754,7.93,7.21C7.694,6.666,7.355,6.234,6.914,5.916C6.472,5.597,5.963,5.438,5.388,5.438
		c-0.848,0-1.507,0.275-1.977,0.826C2.941,6.814,2.706,7.59,2.706,8.592z" fill="white"/>
<path d="M17.912,10.605c1.076,0.526,1.847,1.08,2.314,1.66c0.467,0.582,0.7,1.25,0.7,2.004c0,1.127-0.4,2.024-1.201,2.695
		c-0.802,0.672-1.882,1.007-3.243,1.007c-1.465,0-2.588-0.317-3.367-0.95c-0.779-0.635-1.169-1.533-1.169-2.695
		c0-0.779,0.233-1.471,0.7-2.074c0.468-0.603,1.171-1.121,2.111-1.554c-0.823-0.464-1.426-0.976-1.81-1.536
		c-0.384-0.56-0.572-1.195-0.565-1.906c-0.007-0.983,0.363-1.768,1.108-2.352c0.745-0.585,1.724-0.877,2.937-0.877
		c1.236,0,2.223,0.291,2.959,0.872c0.736,0.582,1.104,1.373,1.104,2.375c0,0.681-0.208,1.293-0.626,1.837
		C19.447,9.656,18.796,10.154,17.912,10.605z M16.14,11.385c-0.896,0.384-1.548,0.811-1.953,1.28
		c-0.404,0.47-0.607,1.03-0.607,1.679c0,0.705,0.249,1.266,0.747,1.68s1.204,0.621,2.119,0.621c0.885,0,1.581-0.211,2.088-0.635
		s0.761-0.998,0.761-1.721c0-0.582-0.225-1.096-0.673-1.541s-1.174-0.862-2.176-1.252L16.14,11.385z M16.502,9.956
		c0.828-0.34,1.425-0.719,1.79-1.136c0.365-0.418,0.548-0.914,0.548-1.489c0-0.606-0.219-1.084-0.654-1.434
		c-0.437-0.349-1.028-0.524-1.777-0.524c-0.729,0-1.311,0.176-1.743,0.529c-0.434,0.353-0.649,0.829-0.649,1.429
		c-0.007,0.551,0.167,1.025,0.52,1.424C14.888,9.154,15.543,9.554,16.502,9.956z" fill="white"/>
</svg>
