<svg width="24" height="24" viewBox="0 0 24 24" fill="none" xmlns="http://www.w3.org/2000/svg">
<path fill-rule="evenodd" clip-rule="evenodd" d="M8.9948 5.9948C10.6545 4.33507 13.3455 4.33507 15.0052 5.9948C16.6649 7.65453 16.6649 10.3455 15.0052 12.0052C13.3455 13.6649 10.6545 13.6649 8.9948 12.0052C7.33507 10.3455 7.33507 7.65453 8.9948 5.9948ZM12 14.7578C9.86712 14.7578 7.7321 15.2735 6.10466 16.2209C4.48397 17.1644 3.25 18.6181 3.25 20.4998V21.4998C3.25 22.466 4.03379 23.2498 5 23.2498H19C19.9662 23.2498 20.75 22.466 20.75 21.4998V20.4998C20.75 18.6181 19.516 17.1644 17.8953 16.2209C16.2679 15.2735 14.1329 14.7578 12 14.7578Z" fill="#909295"/>
</svg>
