<svg width="24" height="24" viewBox="0 0 24 24" fill="none" xmlns="http://www.w3.org/2000/svg">
<path fill-rule="evenodd" clip-rule="evenodd" d="M11.4934 1.26437C11.661 1.25354 11.8299 1.24805 12 1.24805C12.1701 1.24805 12.339 1.25354 12.5066 1.26437C12.92 1.29108 13.2334 1.64782 13.2067 2.06117C13.18 2.47452 12.8232 2.78796 12.4099 2.76125C12.2745 2.7525 12.1378 2.74805 12 2.74805C11.8622 2.74805 11.7255 2.7525 11.5901 2.76125C11.1768 2.78796 10.82 2.47452 10.7933 2.06117C10.7666 1.64782 11.08 1.29108 11.4934 1.26437ZM14.4243 2.38631C14.6078 2.01495 15.0576 1.86264 15.4289 2.04612C15.7334 2.19656 16.0265 2.36635 16.3065 2.55386C16.6507 2.7843 16.743 3.25013 16.5125 3.59433C16.2821 3.93853 15.8163 4.03075 15.4721 3.80032C15.2461 3.64903 15.0098 3.51214 14.7645 3.39093C14.3931 3.20745 14.2408 2.75766 14.4243 2.38631ZM9.57571 2.38631C9.75919 2.75766 9.60689 3.20745 9.23553 3.39093C8.99021 3.51214 8.7539 3.64903 8.52793 3.80032C8.18373 4.03075 7.7179 3.93853 7.48746 3.59433C7.25703 3.25013 7.34925 2.7843 7.69345 2.55386C7.97354 2.36635 8.26662 2.19656 8.57108 2.04612C8.94244 1.86264 9.39223 2.01495 9.57571 2.38631ZM17.4037 4.48551C17.7479 4.25508 18.2137 4.3473 18.4442 4.6915C18.6317 4.97159 18.8015 5.26467 18.9519 5.56913C19.1354 5.94049 18.9831 6.39028 18.6117 6.57376C18.2404 6.75724 17.7906 6.60494 17.6071 6.23358C17.4859 5.98825 17.349 5.75195 17.1977 5.52598C16.9673 5.18178 17.0595 4.71595 17.4037 4.48551ZM6.59628 4.48551C6.94048 4.71595 7.0327 5.18178 6.80227 5.52598C6.65098 5.75195 6.5141 5.98825 6.39289 6.23358C6.2094 6.60494 5.75962 6.75724 5.38826 6.57376C5.0169 6.39028 4.8646 5.94049 5.04808 5.56913C5.19851 5.26467 5.3683 4.97159 5.55582 4.6915C5.78625 4.3473 6.25208 4.25508 6.59628 4.48551ZM18.9369 7.79135C19.3502 7.76464 19.707 8.07807 19.7337 8.49142C19.7445 8.659 19.75 8.82794 19.75 8.99805C19.75 9.16816 19.7445 9.33709 19.7337 9.50467C19.707 9.91803 19.3502 10.2315 18.9369 10.2047C18.5235 10.178 18.2101 9.82129 18.2368 9.40794C18.2456 9.27254 18.25 9.13587 18.25 8.99805C18.25 8.86023 18.2456 8.72356 18.2368 8.58815C18.2101 8.1748 18.5235 7.81806 18.9369 7.79135ZM5.06313 7.79135C5.47648 7.81806 5.78991 8.1748 5.7632 8.58815C5.75445 8.72356 5.75 8.86023 5.75 8.99805C5.75 9.13587 5.75445 9.27254 5.7632 9.40794C5.78991 9.82129 5.47648 10.178 5.06313 10.2047C4.64978 10.2315 4.29303 9.91803 4.26632 9.50467C4.25549 9.33709 4.25 9.16816 4.25 8.99805C4.25 8.82794 4.25549 8.659 4.26632 8.49142C4.29303 8.07807 4.64978 7.76464 5.06313 7.79135ZM18.6117 11.4223C18.9831 11.6058 19.1354 12.0556 18.9519 12.427C18.8015 12.7314 18.6317 13.0245 18.4442 13.3046C18.2137 13.6488 17.7479 13.741 17.4037 13.5106C17.0595 13.2801 16.9673 12.8143 17.1977 12.4701C17.349 12.2441 17.4859 12.0078 17.6071 11.7625C17.7906 11.3912 18.2404 11.2389 18.6117 11.4223ZM5.38826 11.4223C5.75962 11.2389 6.2094 11.3912 6.39289 11.7625C6.5141 12.0078 6.65098 12.2441 6.80227 12.4701C7.0327 12.8143 6.94048 13.2801 6.59628 13.5106C6.25208 13.741 5.78625 13.6488 5.55582 13.3046C5.3683 13.0245 5.19851 12.7314 5.04808 12.427C4.8646 12.0556 5.0169 11.6058 5.38826 11.4223ZM15.0052 5.9948C13.3455 4.33507 10.6545 4.33507 8.9948 5.9948C7.33507 7.65453 7.33507 10.3455 8.9948 12.0052C10.6545 13.6649 13.3455 13.6649 15.0052 12.0052C16.6649 10.3455 16.6649 7.65453 15.0052 5.9948ZM6.10466 16.2209C7.7321 15.2735 9.86712 14.7578 12 14.7578C14.1329 14.7578 16.2679 15.2735 17.8953 16.2209C19.516 17.1644 20.75 18.6181 20.75 20.4998V21.4998C20.75 22.466 19.9662 23.2498 19 23.2498H5C4.03379 23.2498 3.25 22.466 3.25 21.4998V20.4998C3.25 18.6181 4.48397 17.1644 6.10466 16.2209Z" fill="#909295"/>
</svg>
