<svg width="24" height="24" viewBox="0 0 24 24" fill="none" xmlns="http://www.w3.org/2000/svg">
<path fill-rule="evenodd" clip-rule="evenodd" d="M14.0056 1.51189C15.279 1.85183 16.4827 2.52158 17.4802 3.51904C18.4776 4.5165 19.1474 5.72018 19.4873 6.99361C19.5941 7.39381 19.3563 7.80484 18.9561 7.91168C18.5559 8.01851 18.1449 7.78069 18.0381 7.38049C17.7643 6.35507 17.2255 5.38569 16.4195 4.5797C15.6135 3.7737 14.6441 3.23488 13.6187 2.96114C13.2185 2.8543 12.9807 2.44327 13.0875 2.04307C13.1944 1.64287 13.6054 1.40506 14.0056 1.51189ZM10.9127 2.04307C11.0195 2.44327 10.7817 2.8543 10.3815 2.96114C9.35605 3.23488 8.38667 3.7737 7.58067 4.5797C6.77468 5.38569 6.23585 6.35507 5.96212 7.38049C5.85528 7.78069 5.44425 8.01851 5.04405 7.91168C4.64385 7.80484 4.40603 7.39381 4.51287 6.99361C4.85281 5.72018 5.52255 4.5165 6.52001 3.51904C7.51747 2.52158 8.72116 1.85183 9.99459 1.51189C10.3948 1.40506 10.8058 1.64287 10.9127 2.04307ZM18.9561 10.0866C19.3563 10.1934 19.5941 10.6044 19.4873 11.0046C19.2012 12.0763 18.6816 13.0986 17.9296 13.9901C17.4463 13.7692 16.9414 13.5779 16.4217 13.4163C17.2265 12.6107 17.7646 11.6422 18.0381 10.6177C18.1449 10.2175 18.5559 9.97972 18.9561 10.0866ZM4.51287 11.0046C4.79894 12.0763 5.31859 13.0985 6.07056 13.9901C6.55383 13.7691 7.05872 13.5779 7.5784 13.4163C6.77366 12.6107 6.23559 11.6422 5.96212 10.6177C5.85528 10.2175 5.44425 9.97972 5.04405 10.0866C4.64385 10.1934 4.40603 10.6044 4.51287 11.0046ZM15.0052 5.9948C13.3455 4.33507 10.6545 4.33507 8.9948 5.9948C7.33507 7.65453 7.33507 10.3455 8.9948 12.0052C10.6545 13.6649 13.3455 13.6649 15.0052 12.0052C16.6649 10.3455 16.6649 7.65453 15.0052 5.9948ZM6.10466 16.2209C7.7321 15.2735 9.86712 14.7578 12 14.7578C14.1329 14.7578 16.2679 15.2735 17.8953 16.2209C19.516 17.1644 20.75 18.6181 20.75 20.4998V21.4998C20.75 22.466 19.9662 23.2498 19 23.2498H5C4.03379 23.2498 3.25 22.466 3.25 21.4998V20.4998C3.25 18.6181 4.48397 17.1644 6.10466 16.2209Z" fill="#909295"/>
</svg>
