<svg width="24" height="24" viewBox="0 0 24 24" fill="none" xmlns="http://www.w3.org/2000/svg">
<path d="M8.8877 10.4786C9.08296 10.2834 9.39948 10.2833 9.59473 10.4786L13.5215 14.4053C13.7166 14.6006 13.7167 14.9171 13.5215 15.1124L10.7373 17.8965C10.5421 18.0917 10.2255 18.0917 10.0303 17.8965L8.86231 16.7286C8.66706 16.5333 8.35054 16.5334 8.15528 16.7286L3.23731 21.6465C3.04208 21.8417 2.72554 21.8417 2.53028 21.6465L2.35352 21.4698C2.15827 21.2745 2.1583 20.958 2.35352 20.7628L7.27149 15.8448C7.46667 15.6496 7.46662 15.333 7.27149 15.1378L6.10352 13.9698C5.90827 13.7745 5.90829 13.458 6.10352 13.2628L8.8877 10.4786ZM20.6035 16.1036C20.7987 15.9084 21.1153 15.9085 21.3106 16.1036L21.6465 16.4385C21.8417 16.6337 21.8415 16.9503 21.6465 17.1456L20.2705 18.5215C20.0756 18.7168 20.0755 19.0334 20.2705 19.2286L21.6465 20.6036C21.8417 20.7987 21.8415 21.1153 21.6465 21.3106L21.3106 21.6465C21.1153 21.8415 20.7987 21.8417 20.6035 21.6465L19.2285 20.2706C19.0333 20.0756 18.7167 20.0757 18.5215 20.2706L17.1455 21.6465C16.9502 21.8415 16.6336 21.8417 16.4385 21.6465L16.1035 21.3106C15.9085 21.1153 15.9083 20.7988 16.1035 20.6036L17.4785 19.2286C17.6738 19.0333 17.6738 18.7168 17.4785 18.5215L16.1035 17.1456C15.9085 16.9503 15.9083 16.6337 16.1035 16.4385L16.4385 16.1036C16.6337 15.9084 16.9502 15.9085 17.1455 16.1036L18.5215 17.4786C18.7168 17.6738 19.0333 17.6738 19.2285 17.4786L20.6035 16.1036ZM20.7627 2.35358C20.958 2.15836 21.2745 2.15833 21.4697 2.35358L21.6465 2.53034C21.8416 2.7256 21.8417 3.04214 21.6465 3.23737L17.9785 6.90534C17.7833 7.1006 17.7833 7.41712 17.9785 7.61237L19.1465 8.78034C19.3416 8.9756 19.3417 9.29214 19.1465 9.48737L15.1123 13.5215C14.9171 13.7167 14.6005 13.7167 14.4053 13.5215L10.4785 9.59479C10.2833 9.39954 10.2833 9.08303 10.4785 8.88776L14.5127 4.85358C14.708 4.65836 15.0245 4.65833 15.2197 4.85358L16.3877 6.02155C16.583 6.21669 16.8995 6.21674 17.0947 6.02155L20.7627 2.35358Z" fill="#909295"/>
</svg>
