<svg width="24" height="24" viewBox="0 0 24 24" fill="none" xmlns="http://www.w3.org/2000/svg">
<path fill-rule="evenodd" clip-rule="evenodd" d="M12 2.75C8.54822 2.75 5.75 5.54822 5.75 9C5.75 10.7244 6.44835 12.2857 7.57765 13.4165C7.05809 13.5781 6.55333 13.7693 6.07018 13.9902C4.93438 12.642 4.25 10.9009 4.25 9C4.25 4.71979 7.71979 1.25 12 1.25C16.2802 1.25 19.75 4.71979 19.75 9C19.75 10.9009 19.0656 12.642 17.9298 13.9902C17.4467 13.7693 16.9419 13.5781 16.4223 13.4165C17.5517 12.2857 18.25 10.7244 18.25 9C18.25 5.54822 15.4518 2.75 12 2.75ZM15.0052 5.9948C13.3455 4.33507 10.6545 4.33507 8.9948 5.9948C7.33507 7.65453 7.33507 10.3455 8.9948 12.0052C10.6545 13.6649 13.3455 13.6649 15.0052 12.0052C16.6649 10.3455 16.6649 7.65453 15.0052 5.9948ZM6.10466 16.2209C7.7321 15.2735 9.86712 14.7578 12 14.7578C14.1329 14.7578 16.2679 15.2735 17.8953 16.2209C19.516 17.1644 20.75 18.6181 20.75 20.4998V21.4998C20.75 22.466 19.9662 23.2498 19 23.2498H5C4.03379 23.2498 3.25 22.466 3.25 21.4998V20.4998C3.25 18.6181 4.48397 17.1644 6.10466 16.2209Z" fill="#909295"/>
</svg>
