<svg width="24" height="24" viewBox="0 0 24 24" fill="none" xmlns="http://www.w3.org/2000/svg">
<path fill-rule="evenodd" clip-rule="evenodd" d="M16.5624 5.3114C16.2937 5.13073 16.013 4.96625 15.7216 4.81928C15.642 4.7791 15.5615 4.74023 15.4803 4.7027C15.3139 4.62579 15.3139 4.37389 15.4803 4.29699L15.4957 4.28983C15.5717 4.25452 15.647 4.21804 15.7216 4.18041C16.013 4.03344 16.2937 3.86896 16.5624 3.68829C16.5961 3.66562 16.6297 3.64269 16.663 3.61951C17.4262 3.08892 18.0889 2.4262 18.6195 1.66302C18.6427 1.62968 18.6656 1.59615 18.6883 1.56243C18.869 1.29372 19.0334 1.01301 19.1804 0.721632C19.2206 0.641973 19.2595 0.561518 19.297 0.480292C19.3739 0.313861 19.6258 0.313861 19.7027 0.480292C19.7402 0.561518 19.7791 0.641973 19.8193 0.721631C19.9662 1.01301 20.1307 1.29372 20.3114 1.56243C20.3341 1.59615 20.357 1.62968 20.3802 1.66302C20.9108 2.4262 21.5735 3.08892 22.3367 3.61951C22.37 3.64269 22.4035 3.66562 22.4373 3.68829C22.706 3.86896 22.9867 4.03344 23.2781 4.18041L23.2992 4.19105C23.372 4.22746 23.4454 4.26278 23.5194 4.29699C23.6858 4.37389 23.6858 4.62579 23.5194 4.7027C23.4382 4.74023 23.3577 4.7791 23.2781 4.81928C22.9867 4.96625 22.706 5.13073 22.4373 5.3114C22.4035 5.33407 22.37 5.35699 22.3367 5.38017C21.5735 5.91076 20.9108 6.57349 20.3802 7.33667C20.357 7.37001 20.3341 7.40354 20.3114 7.43726C20.1307 7.70596 19.9662 7.98668 19.8193 8.27806C19.7791 8.35771 19.7402 8.43817 19.7027 8.51939C19.6258 8.68583 19.3739 8.68583 19.297 8.51939C19.2595 8.43817 19.2206 8.35771 19.1804 8.27806C19.0334 7.98668 18.869 7.70596 18.6883 7.43726C18.6656 7.40354 18.6427 7.37001 18.6195 7.33667C18.0889 6.57349 17.4262 5.91076 16.663 5.38017C16.6297 5.35699 16.5961 5.33407 16.5624 5.3114ZM16.1002 2.42226C15.7394 2.69174 15.3493 2.92476 14.9352 3.11611C14.8137 3.17224 14.7048 3.24062 14.6085 3.31869C13.8146 2.9536 12.9311 2.75 12 2.75C8.54822 2.75 5.75 5.54822 5.75 9C5.75 10.7244 6.44835 12.2857 7.57765 13.4165C7.05809 13.5781 6.55333 13.7693 6.07018 13.9902C4.93438 12.642 4.25 10.9009 4.25 9C4.25 4.71979 7.71979 1.25 12 1.25C13.5056 1.25 14.9109 1.67934 16.1002 2.42226ZM19.6946 9.93141C19.1534 9.99861 18.5802 9.78414 18.2435 9.28799C18.1705 10.8978 17.4884 12.349 16.4223 13.4165C16.9419 13.5781 17.4467 13.7693 17.9298 13.9902C18.8773 12.8655 19.5106 11.4675 19.6946 9.93141ZM8.9948 5.9948C10.6545 4.33507 13.3455 4.33507 15.0052 5.9948C16.6649 7.65453 16.6649 10.3455 15.0052 12.0052C13.3455 13.6649 10.6545 13.6649 8.9948 12.0052C7.33507 10.3455 7.33507 7.65453 8.9948 5.9948ZM12 14.7578C9.86712 14.7578 7.7321 15.2735 6.10466 16.2209C4.48397 17.1644 3.25 18.6181 3.25 20.4998V21.4998C3.25 22.466 4.03379 23.2498 5 23.2498H19C19.9662 23.2498 20.75 22.466 20.75 21.4998V20.4998C20.75 18.6181 19.516 17.1644 17.8953 16.2209C16.2679 15.2735 14.1329 14.7578 12 14.7578Z" fill="#909295"/>
</svg>
