<svg width="16" height="16" viewBox="0 0 16 16" fill="none" xmlns="http://www.w3.org/2000/svg">
<path d="M10.1597 8.15331C10.6631 7.28142 11.921 7.28142 12.4244 8.15331L15.8228 14.0381C16.3262 14.91 15.6968 16 14.69 16H7.89411C6.88749 15.9998 6.25803 14.9099 6.7613 14.0381L10.1597 8.15331ZM11.2925 13.7324C10.9314 13.7324 10.6383 14.0259 10.6383 14.3877C10.6384 14.7493 10.9315 15.042 11.2925 15.042C11.6534 15.0418 11.9457 14.7492 11.9459 14.3877C11.9459 14.0261 11.6535 13.7326 11.2925 13.7324ZM11.2925 9.62597C11.0166 9.62597 10.7928 9.83962 10.7925 10.1035V12.6543C10.7926 12.9184 11.0164 13.1328 11.2925 13.1328C11.5685 13.1326 11.7925 12.9182 11.7925 12.6543V10.1035C11.7923 9.83974 11.5684 9.62615 11.2925 9.62597Z" fill="#FFB800"/>
<path opacity="0.66" d="M6.1543 5.07715C6.83381 5.07738 7.38473 5.62805 7.38477 6.30762V9.92871L5.72852 12.7979C5.39645 13.373 5.26645 13.987 5.2998 14.5771C5.06798 14.3533 4.92288 14.0401 4.92285 13.6924V6.30762C4.92288 5.62791 5.47458 5.07715 6.1543 5.07715Z" fill="black"/>
<circle cx="3.69231" cy="5.69231" r="3.69231" fill="black"/>
<path opacity="0.8" d="M9.8457 5.07715C10.5254 5.07715 11.0771 5.62791 11.0771 6.30762V6.38086C10.1273 6.44331 9.20191 6.92052 8.61523 7.81152V6.30762C8.61527 5.62805 9.16619 5.07738 9.8457 5.07715Z" fill="black" fill-opacity="0.66"/>
<path d="M12.3076 2C14.3468 2 16 3.65318 16 5.69238C16 6.92038 15.3998 8.00745 14.4775 8.67871L14.0742 7.97949C12.9785 6.08194 10.4271 5.86721 9 7.33301C8.75432 6.83867 8.61525 6.28185 8.61523 5.69238C8.61523 3.6532 10.2684 2.00004 12.3076 2Z" fill="black"/>
</svg>
