<svg width="64" height="64" viewBox="0 0 64 64" fill="none" xmlns="http://www.w3.org/2000/svg">
<path d="M34 25H44V58C44 60.7614 41.7614 63 39 63C36.2386 63 34 60.7614 34 58V25Z" fill="url(#paint0_linear_4041_609)"/>
<path style="mix-blend-mode:hard-light" d="M34 25H44V58C44 60.7614 41.7614 63 39 63C36.2386 63 34 60.7614 34 58V25Z" fill="url(#paint1_linear_4041_609)" fill-opacity="0.2"/>
<path d="M43.5 25.5H34.5V58C34.5 60.4853 36.5147 62.5 39 62.5C41.4853 62.5 43.5 60.4853 43.5 58V25.5ZM44 58C44 60.7615 41.7615 63 39 63C36.2385 63 34 60.7615 34 58V25H44V58Z" fill="url(#paint2_linear_4041_609)" fill-opacity="0.3"/>
<path d="M34 57C38.5 57 38.5 57 44 57V58C44 60.7614 41.7614 63 39 63C36.2386 63 34 60.7614 34 58V57Z" fill="url(#paint3_radial_4041_609)"/>
<path d="M43.5 57.5H34.5V58C34.5 60.4853 36.5147 62.5 39 62.5C41.4853 62.5 43.5 60.4853 43.5 58V57.5ZM44 58C44 60.7615 41.7615 63 39 63C36.2385 63 34 60.7615 34 58V57H44V58Z" fill="url(#paint4_linear_4041_609)" fill-opacity="0.2"/>
<path d="M49.0018 11C57.2859 11 64.0016 17.7157 64.0016 26C64.0016 34.2843 57.2859 41 49.0018 41C40.7176 41 34.002 34.2843 34.002 26C34.002 17.7157 40.7176 11 49.0018 11Z" fill="url(#paint5_radial_4041_609)"/>
<path d="M57.25 26C57.25 28.183 57.6376 30.1474 58.2542 31.5566C58.5626 32.2617 58.9234 32.8165 59.3114 33.1916C59.6982 33.5655 60.0995 33.75 60.5 33.75C60.9005 33.75 61.3018 33.5655 61.6886 33.1916C62.0766 32.8165 62.4374 32.2617 62.7458 31.5566C63.3624 30.1474 63.75 28.183 63.75 26C63.75 23.817 63.3624 21.8526 62.7458 20.4434C62.4374 19.7383 62.0766 19.1835 61.6886 18.8084C61.3018 18.4345 60.9005 18.25 60.5 18.25C60.0995 18.25 59.6982 18.4345 59.3114 18.8084C58.9234 19.1835 58.5626 19.7383 58.2542 20.4434C57.6376 21.8526 57.25 23.817 57.25 26Z" fill="url(#paint6_linear_4041_609)"/>
<path d="M63.5 26C63.5 23.8433 63.1163 21.9147 62.5166 20.5439C62.2165 19.8577 61.8719 19.3336 61.5146 18.9883C61.1599 18.6454 60.8179 18.5 60.5 18.5C60.1821 18.5 59.8401 18.6454 59.4854 18.9883C59.1281 19.3336 58.7835 19.8577 58.4834 20.5439C57.8837 21.9147 57.5 23.8433 57.5 26C57.5 28.1567 57.8837 30.0853 58.4834 31.4561C58.7835 32.1423 59.1281 32.6664 59.4854 33.0117C59.8401 33.3546 60.1821 33.5 60.5 33.5C60.8179 33.5 61.1599 33.3546 61.5146 33.0117C61.8719 32.6664 62.2165 32.1423 62.5166 31.4561C63.1163 30.0853 63.5 28.1567 63.5 26ZM64 26C64 28.2091 63.608 30.2096 62.9746 31.6572C62.658 32.3809 62.2809 32.9663 61.8623 33.3711C61.4434 33.776 60.9831 34 60.5 34C60.0169 34 59.5566 33.776 59.1377 33.3711C58.7191 32.9663 58.342 32.3809 58.0254 31.6572C57.392 30.2096 57 28.2091 57 26C57 23.7909 57.392 21.7904 58.0254 20.3428C58.342 19.6191 58.7191 19.0337 59.1377 18.6289C59.5566 18.224 60.0169 18 60.5 18C60.9831 18 61.4434 18.224 61.8623 18.6289C62.2809 19.0337 62.658 19.6191 62.9746 20.3428C63.608 21.7904 64 23.7909 64 26Z" fill="url(#paint7_linear_4041_609)"/>
<path d="M48.753 24.5215C47.6484 24.5215 46.753 23.6261 46.753 22.5215C46.753 21.4169 47.6484 20.5215 48.753 20.5215C49.8575 20.5215 50.7529 21.4169 50.7529 22.5215C50.7529 23.6261 49.8575 24.5215 48.753 24.5215Z" fill="url(#paint8_linear_4041_609)"/>
<path d="M48.753 24.5215C47.6484 24.5215 46.753 23.6261 46.753 22.5215C46.753 21.4169 47.6484 20.5215 48.753 20.5215C49.8575 20.5215 50.7529 21.4169 50.7529 22.5215C50.7529 23.6261 49.8575 24.5215 48.753 24.5215Z" fill="black" fill-opacity="0.2"/>
<path d="M47.0029 22.5215C47.0029 21.555 47.7865 20.7715 48.7529 20.7715C49.7194 20.7715 50.5029 21.555 50.5029 22.5215C50.5029 23.488 49.7194 24.2715 48.7529 24.2715C47.7865 24.2715 47.0029 23.488 47.0029 22.5215ZM46.5029 22.5215C46.5029 23.7641 47.5103 24.7715 48.7529 24.7715C49.9956 24.7715 51.0029 23.7641 51.0029 22.5215C51.0029 21.2788 49.9956 20.2715 48.7529 20.2715C47.5103 20.2715 46.5029 21.2789 46.5029 22.5215Z" fill="url(#paint9_linear_4041_609)"/>
<path d="M30.001 25H20.001V58C20.001 60.7614 22.2396 63 25.001 63C27.7624 63 30.001 60.7614 30.001 58V25Z" fill="url(#paint10_linear_4041_609)"/>
<path style="mix-blend-mode:hard-light" d="M30.001 25H20.001V58C20.001 60.7614 22.2396 63 25.001 63C27.7624 63 30.001 60.7614 30.001 58V25Z" fill="url(#paint11_linear_4041_609)" fill-opacity="0.2"/>
<path d="M29.501 25.5H20.501V58C20.501 60.4853 22.5156 62.5 25.001 62.5C27.4862 62.5 29.501 60.4853 29.501 58V25.5ZM30.001 58C30.001 60.7615 27.7623 63 25.001 63C22.2395 63 20.001 60.7615 20.001 58V25H30.001V58Z" fill="url(#paint12_linear_4041_609)" fill-opacity="0.3"/>
<path d="M30.001 57C25.501 57 25.501 57 20.001 57V58C20.001 60.7614 22.2396 63 25.001 63C27.7624 63 30.001 60.7614 30.001 58V57Z" fill="url(#paint13_radial_4041_609)"/>
<path d="M29.501 57.5H20.501V58C20.501 60.4853 22.5156 62.5 25.001 62.5C27.4862 62.5 29.501 60.4853 29.501 58V57.5ZM30.001 58C30.001 60.7615 27.7623 63 25.001 63C22.2395 63 20.001 60.7615 20.001 58V57H30.001V58Z" fill="url(#paint14_linear_4041_609)" fill-opacity="0.2"/>
<path d="M14.9998 41C23.284 41 29.9996 34.2843 29.9996 26C29.9996 17.7157 23.284 11 14.9998 11C6.71564 11 0 17.7157 0 26C0 34.2843 6.71564 41 14.9998 41Z" fill="url(#paint15_radial_4041_609)"/>
<path d="M6.75097 26C6.75097 28.183 6.36336 30.1474 5.74681 31.5566C5.43837 32.2617 5.07755 32.8165 4.68956 33.1916C4.30279 33.5655 3.9015 33.75 3.50097 33.75C3.10044 33.75 2.69916 33.5655 2.31238 33.1916C1.9244 32.8165 1.56358 32.2617 1.25514 31.5566C0.638585 30.1474 0.250977 28.183 0.250977 26C0.250977 23.817 0.638585 21.8526 1.25514 20.4434C1.56358 19.7383 1.9244 19.1835 2.31238 18.8084C2.69916 18.4345 3.10044 18.25 3.50097 18.25C3.9015 18.25 4.30279 18.4345 4.68956 18.8084C5.07755 19.1835 5.43837 19.7383 5.74681 20.4434C6.36336 21.8526 6.75097 23.817 6.75097 26Z" fill="url(#paint16_linear_4041_609)"/>
<path d="M6.50098 26C6.50098 23.8433 6.11726 21.9147 5.51758 20.5439C5.21739 19.8577 4.87286 19.3337 4.51562 18.9883C4.16092 18.6454 3.8189 18.5 3.50098 18.5C3.18306 18.5 2.84104 18.6454 2.48633 18.9883C2.1291 19.3337 1.78456 19.8577 1.48438 20.5439C0.884689 21.9147 0.500977 23.8433 0.500977 26C0.500977 28.1567 0.884689 30.0853 1.48438 31.4561C1.78456 32.1423 2.1291 32.6663 2.48633 33.0117C2.84104 33.3546 3.18306 33.5 3.50098 33.5C3.8189 33.5 4.16092 33.3546 4.51562 33.0117C4.87286 32.6663 5.21739 32.1423 5.51758 31.4561C6.11726 30.0853 6.50098 28.1567 6.50098 26ZM7.00098 26C7.00098 28.2091 6.60896 30.2096 5.97559 31.6572C5.65896 32.3809 5.28189 32.9664 4.86328 33.3711C4.44445 33.776 3.98411 34 3.50098 34C3.01784 34 2.55751 33.776 2.13867 33.3711C1.72007 32.9664 1.34299 32.3809 1.02637 31.6572C0.392987 30.2096 0.000976562 28.2091 0.000976562 26C0.000976562 23.7909 0.392987 21.7904 1.02637 20.3428C1.34299 19.6191 1.72007 19.0336 2.13867 18.6289C2.55751 18.224 3.01784 18 3.50098 18C3.98411 18 4.44445 18.224 4.86328 18.6289C5.28189 19.0336 5.65896 19.6191 5.97559 20.3428C6.60896 21.7904 7.00098 23.7909 7.00098 26Z" fill="url(#paint17_linear_4041_609)"/>
<path d="M15.248 24.5215C16.3526 24.5215 17.248 23.6261 17.248 22.5215C17.248 21.4169 16.3526 20.5215 15.248 20.5215C14.1435 20.5215 13.248 21.4169 13.248 22.5215C13.248 23.6261 14.1435 24.5215 15.248 24.5215Z" fill="url(#paint18_linear_4041_609)"/>
<path d="M15.248 24.5215C16.3526 24.5215 17.248 23.6261 17.248 22.5215C17.248 21.4169 16.3526 20.5215 15.248 20.5215C14.1435 20.5215 13.248 21.4169 13.248 22.5215C13.248 23.6261 14.1435 24.5215 15.248 24.5215Z" fill="black" fill-opacity="0.2"/>
<path d="M16.998 22.5215C16.998 21.555 16.2145 20.7715 15.248 20.7715C14.2816 20.7715 13.498 21.555 13.498 22.5215C13.498 23.488 14.2816 24.2715 15.248 24.2715C16.2145 24.2715 16.998 23.488 16.998 22.5215ZM17.498 22.5215C17.498 23.7641 16.4907 24.7715 15.248 24.7715C14.0054 24.7715 12.998 23.7641 12.998 22.5215C12.998 21.2788 14.0054 20.2715 15.248 20.2715C16.4907 20.2715 17.498 21.2789 17.498 22.5215Z" fill="url(#paint19_linear_4041_609)"/>
<path d="M55 44L55.3447 44.8989C56.3603 47.5472 58.4528 49.6397 61.1011 50.6553L62 51L61.1011 51.3447C58.4528 52.3603 56.3603 54.4528 55.3447 57.1011L55 58L54.6553 57.1011C53.6397 54.4528 51.5472 52.3603 48.8989 51.3447L48 51L48.8989 50.6553C51.5472 49.6397 53.6397 47.5472 54.6553 44.8989L55 44Z" fill="url(#paint20_linear_4041_609)"/>
<path d="M55.4609 45.1885C56.4746 47.6035 58.3964 49.5255 60.8115 50.5391L61.9102 51L60.8115 51.4609C58.3965 52.4745 56.4746 54.3956 55.4609 56.8105L55 57.9092L54.5391 56.8105C53.5254 54.3956 51.6035 52.4745 49.1885 51.4609L48.0898 51L49.1885 50.5391C51.6037 49.5255 53.5255 47.6036 54.5391 45.1885L55 44.0898L55.4609 45.1885ZM55 46.5391C53.9808 48.4291 52.4292 49.9798 50.5391 50.999C52.4291 52.0181 53.9807 53.5692 55 55.459C56.0191 53.5697 57.5696 52.018 59.459 50.999C57.5695 49.9798 56.019 48.4287 55 46.5391Z" fill="url(#paint21_linear_4041_609)"/>
<path d="M32 2L32.0675 2.17605C33.0831 4.82441 35.1756 6.91689 37.8239 7.93249L38 8L37.8239 8.06751C35.1756 9.08311 33.0831 11.1756 32.0675 13.8239L32 14L31.9325 13.8239C30.9169 11.1756 28.8244 9.08311 26.1761 8.06752L26 8L26.1761 7.93249C28.8244 6.91689 30.9169 4.82441 31.9325 2.17605L32 2Z" fill="url(#paint22_linear_4041_609)"/>
<path d="M32.4482 3.04297C33.4186 4.9975 35.0035 6.58236 36.958 7.55273L37.8594 8L36.958 8.44824C35.0035 9.41861 33.4186 11.0035 32.4482 12.958L32 13.8594L31.5527 12.958C30.5824 11.0035 28.9975 9.41863 27.043 8.44824L26.1416 8L27.043 7.55273C28.9975 6.58236 30.5824 4.9975 31.5527 3.04297L32 2.1416L32.4482 3.04297ZM32 4.2998C31.0823 5.8128 29.8128 7.08232 28.2998 8C29.8128 8.91757 31.0823 10.1873 32 11.7002C32.9176 10.1874 34.1874 8.91761 35.7002 8C34.1873 7.08227 32.9176 5.81276 32 4.2998Z" fill="url(#paint23_linear_4041_609)"/>
<path d="M9 44C9.88214 46.3003 11.6997 48.1179 14 49C11.6997 49.8821 9.88214 51.6997 9 54C8.11786 51.6997 6.30034 49.8821 4 49C6.30034 48.1179 8.11786 46.3003 9 44Z" fill="url(#paint24_linear_4041_609)"/>
<path d="M9.44141 44.9697C10.2535 46.4965 11.5045 47.7465 13.0312 48.5586L13.8613 49L13.0312 49.4414C11.5044 50.2535 10.2535 51.5044 9.44141 53.0312L9 53.8613L8.55859 53.0312C7.74651 51.5045 6.49651 50.2535 4.96973 49.4414L4.13965 49L4.96973 48.5586C6.4963 47.7465 7.74655 46.4963 8.55859 44.9697L9 44.1396L9.44141 44.9697ZM9 46.1826C8.26626 47.3069 7.30692 48.2663 6.18262 49C7.30689 49.7337 8.26624 50.6932 9 51.8174C9.7337 50.6932 10.6932 49.7337 11.8174 49C10.6932 48.2662 9.73367 47.3069 9 46.1826Z" fill="url(#paint25_linear_4041_609)"/>
<path d="M44 56V57H34V56H44Z" fill="url(#paint26_linear_4041_609)" fill-opacity="0.61"/>
<path d="M30 56V57H20V56H30Z" fill="url(#paint27_linear_4041_609)" fill-opacity="0.61"/>
<defs>
<linearGradient id="paint0_linear_4041_609" x1="41" y1="40" x2="19" y2="64.5" gradientUnits="userSpaceOnUse">
<stop stop-color="#0486F3"/>
<stop offset="0.535308" stop-color="#2CDAEB"/>
<stop offset="1" stop-color="#0486F3"/>
</linearGradient>
<linearGradient id="paint1_linear_4041_609" x1="42" y1="44.5" x2="34.5" y2="45" gradientUnits="userSpaceOnUse">
<stop stop-color="#0C1B2E"/>
<stop offset="1" stop-color="white"/>
</linearGradient>
<linearGradient id="paint2_linear_4041_609" x1="34" y1="51.5" x2="44" y2="51" gradientUnits="userSpaceOnUse">
<stop stop-opacity="0"/>
<stop offset="0.755208" stop-color="#0461DF"/>
</linearGradient>
<radialGradient id="paint3_radial_4041_609" cx="0" cy="0" r="1" gradientUnits="userSpaceOnUse" gradientTransform="translate(37 64.5) rotate(-71.5651) scale(6.32456 10.5409)">
<stop stop-color="#0461DF" stop-opacity="0"/>
<stop offset="1" stop-color="#0461DF"/>
</radialGradient>
<linearGradient id="paint4_linear_4041_609" x1="39" y1="57" x2="39" y2="63" gradientUnits="userSpaceOnUse">
<stop stop-color="#0461DF"/>
<stop offset="1" stop-opacity="0"/>
</linearGradient>
<radialGradient id="paint5_radial_4041_609" cx="0" cy="0" r="1" gradientUnits="userSpaceOnUse" gradientTransform="translate(49.0003 18.5) rotate(90) scale(22.5 22.4997)">
<stop stop-color="#2DE9FB"/>
<stop offset="1" stop-color="#0486F3"/>
</radialGradient>
<linearGradient id="paint6_linear_4041_609" x1="60.5" y1="18" x2="60.5" y2="34" gradientUnits="userSpaceOnUse">
<stop stop-color="#0E438A"/>
<stop offset="1" stop-color="#0461DF"/>
</linearGradient>
<linearGradient id="paint7_linear_4041_609" x1="60.5" y1="18" x2="60.5" y2="34" gradientUnits="userSpaceOnUse">
<stop stop-color="#0486F3"/>
<stop offset="1" stop-color="#2DE9FB"/>
</linearGradient>
<linearGradient id="paint8_linear_4041_609" x1="46.753" y1="22.5215" x2="46.753" y2="26.5215" gradientUnits="userSpaceOnUse">
<stop stop-color="#0461DF"/>
<stop offset="1" stop-color="#1462CC"/>
</linearGradient>
<linearGradient id="paint9_linear_4041_609" x1="46.753" y1="22.5215" x2="46.753" y2="26.5215" gradientUnits="userSpaceOnUse">
<stop stop-color="#0486F3"/>
<stop offset="1" stop-color="#2DE9FB"/>
</linearGradient>
<linearGradient id="paint10_linear_4041_609" x1="23.001" y1="40" x2="45.001" y2="64.5" gradientUnits="userSpaceOnUse">
<stop stop-color="#0486F3"/>
<stop offset="0.535308" stop-color="#2CDAEB"/>
<stop offset="1" stop-color="#0486F3"/>
</linearGradient>
<linearGradient id="paint11_linear_4041_609" x1="22.001" y1="44.5" x2="29.501" y2="45" gradientUnits="userSpaceOnUse">
<stop stop-color="#0C1B2E"/>
<stop offset="1" stop-color="white"/>
</linearGradient>
<linearGradient id="paint12_linear_4041_609" x1="30.001" y1="51.5" x2="20.001" y2="51" gradientUnits="userSpaceOnUse">
<stop stop-opacity="0"/>
<stop offset="0.755208" stop-color="#0461DF"/>
</linearGradient>
<radialGradient id="paint13_radial_4041_609" cx="0" cy="0" r="1" gradientUnits="userSpaceOnUse" gradientTransform="translate(27.001 64.5) rotate(-108.435) scale(6.32456 10.5409)">
<stop stop-color="#0461DF" stop-opacity="0"/>
<stop offset="1" stop-color="#0461DF"/>
</radialGradient>
<linearGradient id="paint14_linear_4041_609" x1="25.001" y1="57" x2="25.001" y2="63" gradientUnits="userSpaceOnUse">
<stop stop-color="#0461DF"/>
<stop offset="1" stop-opacity="0"/>
</linearGradient>
<radialGradient id="paint15_radial_4041_609" cx="0" cy="0" r="1" gradientUnits="userSpaceOnUse" gradientTransform="translate(14.9998 18.5) rotate(90) scale(22 21.9997)">
<stop stop-color="#2DE9FB"/>
<stop offset="1" stop-color="#0486F3"/>
</radialGradient>
<linearGradient id="paint16_linear_4041_609" x1="3.50097" y1="18" x2="3.50097" y2="34" gradientUnits="userSpaceOnUse">
<stop stop-color="#0E438A"/>
<stop offset="1" stop-color="#0461DF"/>
</linearGradient>
<linearGradient id="paint17_linear_4041_609" x1="3.50097" y1="18" x2="3.50097" y2="34" gradientUnits="userSpaceOnUse">
<stop stop-color="#0486F3"/>
<stop offset="1" stop-color="#2DE9FB"/>
</linearGradient>
<linearGradient id="paint18_linear_4041_609" x1="15.248" y1="20.5215" x2="15.248" y2="24.5215" gradientUnits="userSpaceOnUse">
<stop stop-color="#0461DF"/>
<stop offset="1" stop-color="#1462CC"/>
</linearGradient>
<linearGradient id="paint19_linear_4041_609" x1="15.248" y1="20.5215" x2="15.248" y2="24.5215" gradientUnits="userSpaceOnUse">
<stop stop-color="#0486F3"/>
<stop offset="1" stop-color="#2DE9FB"/>
</linearGradient>
<linearGradient id="paint20_linear_4041_609" x1="55" y1="44" x2="55" y2="58" gradientUnits="userSpaceOnUse">
<stop stop-color="#FFB800"/>
<stop offset="1" stop-color="#FBDC1F"/>
</linearGradient>
<linearGradient id="paint21_linear_4041_609" x1="54.9997" y1="43.9996" x2="54.9997" y2="57.9996" gradientUnits="userSpaceOnUse">
<stop offset="0.223958" stop-color="#FEB901"/>
<stop offset="0.703125" stop-color="#FBDB1E"/>
</linearGradient>
<linearGradient id="paint22_linear_4041_609" x1="32" y1="2" x2="32" y2="14" gradientUnits="userSpaceOnUse">
<stop stop-color="#FFB800"/>
<stop offset="1" stop-color="#FBDC1F"/>
</linearGradient>
<linearGradient id="paint23_linear_4041_609" x1="32.0004" y1="2.00044" x2="32.0004" y2="14.0004" gradientUnits="userSpaceOnUse">
<stop offset="0.223958" stop-color="#FEB901"/>
<stop offset="0.703125" stop-color="#FBDB1E"/>
</linearGradient>
<linearGradient id="paint24_linear_4041_609" x1="9" y1="44" x2="9" y2="54" gradientUnits="userSpaceOnUse">
<stop stop-color="#FFB800"/>
<stop offset="1" stop-color="#FBDC1F"/>
</linearGradient>
<linearGradient id="paint25_linear_4041_609" x1="9.00031" y1="44.0003" x2="9.00031" y2="54.0003" gradientUnits="userSpaceOnUse">
<stop offset="0.223958" stop-color="#FEB901"/>
<stop offset="0.703125" stop-color="#FBDB1E"/>
</linearGradient>
<linearGradient id="paint26_linear_4041_609" x1="34" y1="57" x2="44" y2="57" gradientUnits="userSpaceOnUse">
<stop stop-color="#2DE9FB"/>
<stop offset="1" stop-color="white"/>
</linearGradient>
<linearGradient id="paint27_linear_4041_609" x1="20" y1="57" x2="30" y2="57" gradientUnits="userSpaceOnUse">
<stop stop-color="#2DE9FB"/>
<stop offset="1" stop-color="white"/>
</linearGradient>
</defs>
</svg>
