<svg width="22" height="22" viewBox="0 0 22 22" fill="none" xmlns="http://www.w3.org/2000/svg">
<path d="M6.891,17.786H5.258V8.305c0-1.021,0.024-1.8,0.074-2.338c-0.18,0.192-0.421,0.415-0.724,0.668L2.716,8.193L1.844,7.071
		l3.664-2.857h1.383V17.786z" fill="black"/>
<path d="M16.437,17.972c-1.472,0-2.587-0.591-3.345-1.772c-0.757-1.181-1.136-2.918-1.136-5.213c0-2.387,0.369-4.147,1.108-5.279
		s1.863-1.698,3.372-1.698c1.466,0,2.585,0.592,3.358,1.776c0.773,1.185,1.16,2.918,1.16,5.2c0,2.35-0.373,4.102-1.118,5.256
		C19.091,17.395,17.958,17.972,16.437,17.972z M16.437,16.553c0.983,0,1.701-0.442,2.152-1.327c0.451-0.884,0.677-2.298,0.677-4.24
		c0-1.936-0.227-3.345-0.682-4.226c-0.454-0.882-1.17-1.322-2.147-1.322c-0.989,0-1.705,0.439-2.147,1.317
		c-0.442,0.878-0.663,2.289-0.663,4.23c0,1.948,0.221,3.364,0.663,4.245S15.447,16.553,16.437,16.553z" fill="black"/>
</svg>
