<svg width="22" height="22" viewBox="0 0 22 22" fill="none" xmlns="http://www.w3.org/2000/svg">
<path d="M6.891,17.786H5.258V8.305c0-1.021,0.024-1.8,0.074-2.338c-0.18,0.192-0.421,0.415-0.724,0.668L2.716,8.193L1.844,7.071
		l3.664-2.857h1.383V17.786z" fill="black"/>
<path d="M20.89,17.786h-8.962v-1.392l3.554-3.59c0.939-0.953,1.603-1.669,1.989-2.148c0.387-0.479,0.676-0.953,0.867-1.42
		c0.192-0.467,0.288-0.969,0.288-1.507c0-0.711-0.215-1.268-0.645-1.67c-0.431-0.402-1.013-0.603-1.749-0.603
		c-0.594,0-1.138,0.099-1.633,0.297c-0.495,0.198-1.039,0.529-1.633,0.993l-0.891-1.123c1.274-1.063,2.659-1.596,4.156-1.596
		c1.268,0,2.269,0.325,3.001,0.974c0.733,0.649,1.103,1.528,1.108,2.635c0,0.668-0.134,1.302-0.403,1.902
		c-0.269,0.6-0.632,1.183-1.09,1.749c-0.458,0.565-1.119,1.269-1.985,2.111l-2.829,2.792v0.074h6.855V17.786z" fill="black"/>
</svg>
