<svg width="22" height="22" viewBox="0 0 22 22" fill="none" xmlns="http://www.w3.org/2000/svg">
<path d="M6.705,10.643v0.074c1.058,0.136,1.86,0.477,2.407,1.021c0.548,0.544,0.821,1.274,0.821,2.189
		c0,1.28-0.449,2.274-1.346,2.983c-0.896,0.707-2.184,1.062-3.859,1.062c-1.503,0-2.746-0.247-3.729-0.742v-1.559
		c0.575,0.291,1.192,0.514,1.852,0.668c0.658,0.155,1.29,0.231,1.896,0.231c1.145,0,2.004-0.223,2.579-0.668
		s0.863-1.115,0.863-2.013c0-0.798-0.317-1.396-0.951-1.796c-0.634-0.398-1.585-0.598-2.853-0.598H3.077v-1.429h1.327
		c1.076,0,1.911-0.229,2.505-0.687c0.594-0.458,0.894-1.082,0.899-1.874C7.803,6.857,7.58,6.351,7.141,5.985
		C6.701,5.621,6.099,5.438,5.332,5.438c-0.601,0-1.161,0.083-1.684,0.25c-0.523,0.167-1.1,0.461-1.73,0.881L1.083,5.438
		c1.218-0.94,2.628-1.41,4.23-1.41c1.336,0,2.37,0.302,3.104,0.904c0.732,0.604,1.099,1.421,1.099,2.454
		c0,0.86-0.239,1.569-0.719,2.129C8.317,10.075,7.62,10.451,6.705,10.643z" fill="black"/>
<path d="M17.754,17.786h-1.633V8.305c0-1.021,0.024-1.8,0.074-2.338c-0.18,0.192-0.421,0.415-0.724,0.668l-1.893,1.559
		l-0.872-1.123l3.664-2.857h1.383V17.786z" fill="black"/>
</svg>
