<svg width="22" height="22" viewBox="0 0 22 22" fill="none" xmlns="http://www.w3.org/2000/svg">
<path d="M6.705,10.643v0.074c1.058,0.136,1.86,0.477,2.407,1.021c0.548,0.544,0.821,1.274,0.821,2.189
		c0,1.28-0.449,2.274-1.346,2.983c-0.896,0.707-2.184,1.062-3.859,1.062c-1.503,0-2.746-0.247-3.729-0.742v-1.559
		c0.575,0.291,1.192,0.514,1.852,0.668c0.658,0.155,1.29,0.231,1.896,0.231c1.145,0,2.004-0.223,2.579-0.668
		s0.863-1.115,0.863-2.013c0-0.798-0.317-1.396-0.951-1.796c-0.634-0.398-1.585-0.598-2.853-0.598H3.077v-1.429h1.327
		c1.076,0,1.911-0.229,2.505-0.687c0.594-0.458,0.894-1.082,0.899-1.874C7.803,6.857,7.58,6.351,7.141,5.985
		C6.701,5.621,6.099,5.438,5.332,5.438c-0.601,0-1.161,0.083-1.684,0.25c-0.523,0.167-1.1,0.461-1.73,0.881L1.083,5.438
		c1.218-0.94,2.628-1.41,4.23-1.41c1.336,0,2.37,0.302,3.104,0.904c0.732,0.604,1.099,1.421,1.099,2.454
		c0,0.86-0.239,1.569-0.719,2.129C8.317,10.075,7.62,10.451,6.705,10.643z" fill="black"/>
<path d="M17.912,10.605c1.076,0.526,1.847,1.08,2.314,1.66c0.467,0.582,0.7,1.25,0.7,2.004c0,1.127-0.4,2.024-1.201,2.695
		c-0.802,0.672-1.882,1.007-3.243,1.007c-1.465,0-2.588-0.317-3.367-0.95c-0.779-0.635-1.169-1.533-1.169-2.695
		c0-0.779,0.233-1.471,0.7-2.074c0.468-0.603,1.171-1.121,2.111-1.554c-0.823-0.464-1.426-0.976-1.81-1.536
		c-0.384-0.56-0.572-1.195-0.565-1.906c-0.007-0.983,0.363-1.768,1.108-2.352c0.745-0.585,1.724-0.877,2.937-0.877
		c1.236,0,2.223,0.291,2.959,0.872c0.736,0.582,1.104,1.373,1.104,2.375c0,0.681-0.208,1.293-0.626,1.837
		C19.447,9.656,18.796,10.154,17.912,10.605z M16.14,11.385c-0.896,0.384-1.548,0.811-1.953,1.28
		c-0.404,0.47-0.607,1.03-0.607,1.679c0,0.705,0.249,1.266,0.747,1.68s1.204,0.621,2.119,0.621c0.885,0,1.581-0.211,2.088-0.635
		s0.761-0.998,0.761-1.721c0-0.582-0.225-1.096-0.673-1.541s-1.174-0.862-2.176-1.252L16.14,11.385z M16.502,9.956
		c0.828-0.34,1.425-0.719,1.79-1.136c0.365-0.418,0.548-0.914,0.548-1.489c0-0.606-0.219-1.084-0.654-1.434
		c-0.437-0.349-1.028-0.524-1.777-0.524c-0.729,0-1.311,0.176-1.743,0.529c-0.434,0.353-0.649,0.829-0.649,1.429
		c-0.007,0.551,0.167,1.025,0.52,1.424C14.888,9.154,15.543,9.554,16.502,9.956z" fill="black"/>
</svg>
