<svg width="22" height="22" viewBox="0 0 22 22" fill="none" xmlns="http://www.w3.org/2000/svg">
<path d="M10.639,14.706H8.662v3.08H7.048v-3.08H0.545v-1.429l6.383-9.138h1.734v9.064h1.977V14.706z M7.048,13.203V8.926
		c0-0.754,0.031-1.753,0.093-2.997H7.066C6.85,6.406,6.578,6.901,6.25,7.414l-4.072,5.789H7.048z" fill="black"/>
<path d="M12.206,17.229v-1.577c0.445,0.272,0.994,0.49,1.646,0.654c0.653,0.164,1.282,0.246,1.889,0.246
		c1.063,0,1.888-0.252,2.472-0.756c0.585-0.505,0.877-1.23,0.877-2.176c0-0.916-0.284-1.604-0.854-2.065
		c-0.569-0.46-1.42-0.691-2.551-0.691c-0.668,0-1.441,0.096-2.319,0.288l-0.835-0.529l0.51-6.411h6.81v1.521H14.47l-0.324,3.934
		c0.772-0.136,1.469-0.204,2.087-0.204c1.41,0,2.523,0.356,3.34,1.067c0.816,0.711,1.225,1.686,1.225,2.922
		c0,1.41-0.444,2.516-1.331,3.316c-0.888,0.802-2.136,1.202-3.743,1.202c-0.73,0-1.399-0.063-2.009-0.19
		S12.602,17.471,12.206,17.229z" fill="black"/>
</svg>
