<svg width="22" height="22" viewBox="0 0 22 22" fill="none" xmlns="http://www.w3.org/2000/svg">
<path d="M1.343,17.229v-1.577c0.445,0.272,0.994,0.49,1.646,0.654s1.281,0.246,1.888,0.246c1.063,0,1.889-0.252,2.473-0.756
		c0.585-0.505,0.877-1.23,0.877-2.176c0-0.916-0.285-1.604-0.854-2.065c-0.569-0.46-1.42-0.691-2.552-0.691
		c-0.668,0-1.441,0.096-2.319,0.288l-0.835-0.529l0.511-6.411h6.81v1.521H3.606L3.281,9.668C4.055,9.533,4.75,9.464,5.369,9.464
		c1.41,0,2.523,0.356,3.34,1.067c0.816,0.711,1.225,1.686,1.225,2.922c0,1.41-0.444,2.516-1.331,3.316
		c-0.888,0.802-2.136,1.202-3.744,1.202c-0.729,0-1.399-0.063-2.008-0.19C2.241,17.654,1.738,17.471,1.343,17.229z" fill="black"/>
<path d="M20.89,17.786h-8.962v-1.392l3.554-3.59c0.939-0.953,1.603-1.669,1.989-2.148c0.387-0.479,0.676-0.953,0.867-1.42
		c0.192-0.467,0.288-0.969,0.288-1.507c0-0.711-0.215-1.268-0.645-1.67c-0.431-0.402-1.013-0.603-1.749-0.603
		c-0.594,0-1.138,0.099-1.633,0.297c-0.495,0.198-1.039,0.529-1.633,0.993l-0.891-1.123c1.274-1.063,2.659-1.596,4.156-1.596
		c1.268,0,2.269,0.325,3.001,0.974c0.733,0.649,1.103,1.528,1.108,2.635c0,0.668-0.134,1.302-0.403,1.902
		c-0.269,0.6-0.632,1.183-1.09,1.749c-0.458,0.565-1.119,1.269-1.985,2.111l-2.829,2.792v0.074h6.855V17.786z" fill="black"/>
</svg>
