<svg width="22" height="22" viewBox="0 0 22 22" fill="none" xmlns="http://www.w3.org/2000/svg">
<path d="M1.343,17.229v-1.577c0.445,0.272,0.994,0.49,1.646,0.654s1.281,0.246,1.888,0.246c1.063,0,1.889-0.252,2.473-0.756
		c0.585-0.505,0.877-1.23,0.877-2.176c0-0.916-0.285-1.604-0.854-2.065c-0.569-0.46-1.42-0.691-2.552-0.691
		c-0.668,0-1.441,0.096-2.319,0.288l-0.835-0.529l0.511-6.411h6.81v1.521H3.606L3.281,9.668C4.055,9.533,4.75,9.464,5.369,9.464
		c1.41,0,2.523,0.356,3.34,1.067c0.816,0.711,1.225,1.686,1.225,2.922c0,1.41-0.444,2.516-1.331,3.316
		c-0.888,0.802-2.136,1.202-3.744,1.202c-0.729,0-1.399-0.063-2.008-0.19C2.241,17.654,1.738,17.471,1.343,17.229z" fill="black"/>
<path d="M17.568,10.643v0.074c1.058,0.136,1.86,0.477,2.407,1.021c0.548,0.544,0.821,1.274,0.821,2.189
		c0,1.28-0.448,2.274-1.346,2.983c-0.896,0.707-2.183,1.062-3.858,1.062c-1.503,0-2.746-0.247-3.729-0.742v-1.559
		c0.575,0.291,1.191,0.514,1.851,0.668c0.658,0.155,1.291,0.231,1.897,0.231c1.144,0,2.004-0.223,2.578-0.668
		c0.576-0.445,0.863-1.115,0.863-2.013c0-0.798-0.317-1.396-0.951-1.796c-0.634-0.398-1.585-0.598-2.853-0.598h-1.308v-1.429h1.326
		c1.076,0,1.911-0.229,2.505-0.687c0.594-0.458,0.894-1.082,0.899-1.874c-0.006-0.649-0.229-1.156-0.668-1.521
		c-0.438-0.365-1.042-0.547-1.809-0.547c-0.6,0-1.161,0.083-1.684,0.25s-1.1,0.461-1.73,0.881l-0.835-1.132
		c1.219-0.94,2.629-1.41,4.23-1.41c1.336,0,2.37,0.302,3.104,0.904c0.732,0.604,1.099,1.421,1.099,2.454
		c0,0.86-0.239,1.569-0.719,2.129C19.181,10.075,18.483,10.451,17.568,10.643z" fill="black"/>
</svg>
