<svg width="22" height="22" viewBox="0 0 22 22" fill="none" xmlns="http://www.w3.org/2000/svg">
<path d="M1.343,17.229v-1.577c0.445,0.272,0.994,0.49,1.646,0.654s1.281,0.246,1.888,0.246c1.063,0,1.889-0.252,2.473-0.756
		c0.585-0.505,0.877-1.23,0.877-2.176c0-0.916-0.285-1.604-0.854-2.065c-0.569-0.46-1.42-0.691-2.552-0.691
		c-0.668,0-1.441,0.096-2.319,0.288l-0.835-0.529l0.511-6.411h6.81v1.521H3.606L3.281,9.668C4.055,9.533,4.75,9.464,5.369,9.464
		c1.41,0,2.523,0.356,3.34,1.067c0.816,0.711,1.225,1.686,1.225,2.922c0,1.41-0.444,2.516-1.331,3.316
		c-0.888,0.802-2.136,1.202-3.744,1.202c-0.729,0-1.399-0.063-2.008-0.19C2.241,17.654,1.738,17.471,1.343,17.229z" fill="black"/>
<path d="M19.916,4.195v1.429c-0.465-0.154-1.009-0.232-1.633-0.232c-1.467,0-2.576,0.442-3.331,1.327
		c-0.755,0.885-1.172,2.273-1.252,4.166h0.111c0.34-0.52,0.783-0.915,1.331-1.188c0.547-0.272,1.176-0.408,1.888-0.408
		c1.193,0,2.146,0.368,2.857,1.104c0.711,0.736,1.067,1.745,1.067,3.024c0,1.41-0.391,2.522-1.17,3.336
		c-0.779,0.812-1.824,1.22-3.135,1.22c-1.404,0-2.525-0.525-3.363-1.577c-0.838-1.051-1.257-2.52-1.257-4.407
		c0-2.653,0.518-4.644,1.554-5.97c1.036-1.327,2.59-1.99,4.662-1.99C18.907,4.028,19.464,4.083,19.916,4.195z M19.303,13.416
		c0-0.891-0.224-1.582-0.672-2.073c-0.449-0.492-1.097-0.738-1.943-0.738c-0.576,0-1.094,0.125-1.555,0.375
		c-0.46,0.251-0.812,0.566-1.053,0.946c-0.241,0.381-0.361,0.769-0.361,1.165c0,0.619,0.125,1.2,0.375,1.744
		c0.251,0.545,0.596,0.969,1.035,1.275c0.438,0.307,0.939,0.459,1.502,0.459c0.848,0,1.505-0.273,1.972-0.82
		S19.303,14.425,19.303,13.416z" fill="black"/>
</svg>
