<svg width="22" height="22" viewBox="0 0 22 22" fill="none" xmlns="http://www.w3.org/2000/svg">
<path d="M1.343,17.229v-1.577c0.445,0.272,0.994,0.49,1.646,0.654s1.281,0.246,1.888,0.246c1.063,0,1.889-0.252,2.473-0.756
		c0.585-0.505,0.877-1.23,0.877-2.176c0-0.916-0.285-1.604-0.854-2.065c-0.569-0.46-1.42-0.691-2.552-0.691
		c-0.668,0-1.441,0.096-2.319,0.288l-0.835-0.529l0.511-6.411h6.81v1.521H3.606L3.281,9.668C4.055,9.533,4.75,9.464,5.369,9.464
		c1.41,0,2.523,0.356,3.34,1.067c0.816,0.711,1.225,1.686,1.225,2.922c0,1.41-0.444,2.516-1.331,3.316
		c-0.888,0.802-2.136,1.202-3.744,1.202c-0.729,0-1.399-0.063-2.008-0.19C2.241,17.654,1.738,17.471,1.343,17.229z" fill="black"/>
<path d="M13.598,17.786l5.566-12.051h-7.319V4.213h9.101v1.299l-5.511,12.274H13.598z" fill="black"/>
</svg>
