<svg width="22" height="22" viewBox="0 0 22 22" fill="none" xmlns="http://www.w3.org/2000/svg">
<path d="M1.343,17.229v-1.577c0.445,0.272,0.994,0.49,1.646,0.654s1.281,0.246,1.888,0.246c1.063,0,1.889-0.252,2.473-0.756
		c0.585-0.505,0.877-1.23,0.877-2.176c0-0.916-0.285-1.604-0.854-2.065c-0.569-0.46-1.42-0.691-2.552-0.691
		c-0.668,0-1.441,0.096-2.319,0.288l-0.835-0.529l0.511-6.411h6.81v1.521H3.606L3.281,9.668C4.055,9.533,4.75,9.464,5.369,9.464
		c1.41,0,2.523,0.356,3.34,1.067c0.816,0.711,1.225,1.686,1.225,2.922c0,1.41-0.444,2.516-1.331,3.316
		c-0.888,0.802-2.136,1.202-3.744,1.202c-0.729,0-1.399-0.063-2.008-0.19C2.241,17.654,1.738,17.471,1.343,17.229z" fill="black"/>
<path d="M12.902,17.786v-1.429c0.513,0.167,1.069,0.25,1.67,0.25c1.478,0,2.594-0.443,3.349-1.33
		c0.755-0.889,1.166-2.27,1.233-4.143h-0.111c-0.692,1.051-1.771,1.577-3.237,1.577c-1.2,0-2.147-0.365-2.844-1.099
		c-0.695-0.732-1.043-1.733-1.043-3.001c0-1.404,0.391-2.519,1.173-3.345c0.783-0.825,1.836-1.238,3.159-1.238
		c1.392,0,2.505,0.526,3.34,1.577c0.835,1.052,1.253,2.521,1.253,4.407c0,2.653-0.52,4.643-1.559,5.971
		c-1.039,1.326-2.598,1.989-4.676,1.989c-0.291,0-0.604-0.017-0.942-0.052C13.33,17.887,13.075,17.842,12.902,17.786z M13.57,8.592
		c0,0.903,0.221,1.594,0.663,2.073c0.442,0.479,1.087,0.719,1.935,0.719c0.543,0,1.046-0.111,1.507-0.334s0.822-0.53,1.086-0.923
		c0.263-0.393,0.394-0.799,0.394-1.22c-0.006-0.587-0.126-1.153-0.361-1.698c-0.235-0.544-0.574-0.976-1.016-1.294
		c-0.442-0.318-0.951-0.478-1.526-0.478c-0.848,0-1.506,0.275-1.976,0.826C13.805,6.814,13.57,7.59,13.57,8.592z" fill="black"/>
</svg>
