<svg width="22" height="22" viewBox="0 0 22 22" fill="none" xmlns="http://www.w3.org/2000/svg">
<path d="M9.052,4.195v1.429C8.588,5.469,8.044,5.392,7.419,5.392c-1.466,0-2.576,0.442-3.33,1.327
		c-0.755,0.885-1.173,2.273-1.253,4.166h0.111c0.34-0.52,0.784-0.915,1.332-1.188c0.547-0.272,1.176-0.408,1.888-0.408
		c1.193,0,2.146,0.368,2.857,1.104c0.711,0.736,1.066,1.745,1.066,3.024c0,1.41-0.39,2.522-1.169,3.336
		c-0.779,0.812-1.824,1.22-3.136,1.22c-1.404,0-2.524-0.525-3.362-1.577c-0.839-1.051-1.258-2.52-1.258-4.407
		c0-2.653,0.519-4.644,1.555-5.97c1.035-1.327,2.589-1.99,4.661-1.99C8.044,4.028,8.601,4.083,9.052,4.195z M8.439,13.416
		c0-0.891-0.224-1.582-0.672-2.073c-0.449-0.492-1.097-0.738-1.944-0.738c-0.575,0-1.093,0.125-1.554,0.375
		c-0.461,0.251-0.812,0.566-1.053,0.946c-0.241,0.381-0.362,0.769-0.362,1.165c0,0.619,0.126,1.2,0.376,1.744
		c0.251,0.545,0.595,0.969,1.034,1.275s0.94,0.459,1.503,0.459c0.848,0,1.505-0.273,1.972-0.82S8.439,14.425,8.439,13.416z" fill="black"/>
<path d="M17.568,10.643v0.074c1.058,0.136,1.86,0.477,2.407,1.021c0.548,0.544,0.821,1.274,0.821,2.189
		c0,1.28-0.448,2.274-1.346,2.983c-0.896,0.707-2.183,1.062-3.858,1.062c-1.503,0-2.746-0.247-3.729-0.742v-1.559
		c0.575,0.291,1.191,0.514,1.851,0.668c0.658,0.155,1.291,0.231,1.897,0.231c1.144,0,2.004-0.223,2.578-0.668
		c0.576-0.445,0.863-1.115,0.863-2.013c0-0.798-0.317-1.396-0.951-1.796c-0.634-0.398-1.585-0.598-2.853-0.598h-1.308v-1.429h1.326
		c1.076,0,1.911-0.229,2.505-0.687c0.594-0.458,0.894-1.082,0.899-1.874c-0.006-0.649-0.229-1.156-0.668-1.521
		c-0.438-0.365-1.042-0.547-1.809-0.547c-0.6,0-1.161,0.083-1.684,0.25s-1.1,0.461-1.73,0.881l-0.835-1.132
		c1.219-0.94,2.629-1.41,4.23-1.41c1.336,0,2.37,0.302,3.104,0.904c0.732,0.604,1.099,1.421,1.099,2.454
		c0,0.86-0.239,1.569-0.719,2.129C19.181,10.075,18.483,10.451,17.568,10.643z" fill="black"/>
</svg>
