<svg width="22" height="22" viewBox="0 0 22 22" fill="none" xmlns="http://www.w3.org/2000/svg">
<path d="M9.052,4.195v1.429C8.588,5.469,8.044,5.392,7.419,5.392c-1.466,0-2.576,0.442-3.33,1.327
		c-0.755,0.885-1.173,2.273-1.253,4.166h0.111c0.34-0.52,0.784-0.915,1.332-1.188c0.547-0.272,1.176-0.408,1.888-0.408
		c1.193,0,2.146,0.368,2.857,1.104c0.711,0.736,1.066,1.745,1.066,3.024c0,1.41-0.39,2.522-1.169,3.336
		c-0.779,0.812-1.824,1.22-3.136,1.22c-1.404,0-2.524-0.525-3.362-1.577c-0.839-1.051-1.258-2.52-1.258-4.407
		c0-2.653,0.519-4.644,1.555-5.97c1.035-1.327,2.589-1.99,4.661-1.99C8.044,4.028,8.601,4.083,9.052,4.195z M8.439,13.416
		c0-0.891-0.224-1.582-0.672-2.073c-0.449-0.492-1.097-0.738-1.944-0.738c-0.575,0-1.093,0.125-1.554,0.375
		c-0.461,0.251-0.812,0.566-1.053,0.946c-0.241,0.381-0.362,0.769-0.362,1.165c0,0.619,0.126,1.2,0.376,1.744
		c0.251,0.545,0.595,0.969,1.034,1.275s0.94,0.459,1.503,0.459c0.848,0,1.505-0.273,1.972-0.82S8.439,14.425,8.439,13.416z" fill="black"/>
<path d="M17.912,10.605c1.076,0.526,1.847,1.08,2.314,1.66c0.467,0.582,0.7,1.25,0.7,2.004c0,1.127-0.4,2.024-1.201,2.695
		c-0.802,0.672-1.882,1.007-3.243,1.007c-1.465,0-2.588-0.317-3.367-0.95c-0.779-0.635-1.169-1.533-1.169-2.695
		c0-0.779,0.233-1.471,0.7-2.074c0.468-0.603,1.171-1.121,2.111-1.554c-0.823-0.464-1.426-0.976-1.81-1.536
		c-0.384-0.56-0.572-1.195-0.565-1.906c-0.007-0.983,0.363-1.768,1.108-2.352c0.745-0.585,1.724-0.877,2.937-0.877
		c1.236,0,2.223,0.291,2.959,0.872c0.736,0.582,1.104,1.373,1.104,2.375c0,0.681-0.208,1.293-0.626,1.837
		C19.447,9.656,18.796,10.154,17.912,10.605z M16.14,11.385c-0.896,0.384-1.548,0.811-1.953,1.28
		c-0.404,0.47-0.607,1.03-0.607,1.679c0,0.705,0.249,1.266,0.747,1.68s1.204,0.621,2.119,0.621c0.885,0,1.581-0.211,2.088-0.635
		s0.761-0.998,0.761-1.721c0-0.582-0.225-1.096-0.673-1.541s-1.174-0.862-2.176-1.252L16.14,11.385z M16.502,9.956
		c0.828-0.34,1.425-0.719,1.79-1.136c0.365-0.418,0.548-0.914,0.548-1.489c0-0.606-0.219-1.084-0.654-1.434
		c-0.437-0.349-1.028-0.524-1.777-0.524c-0.729,0-1.311,0.176-1.743,0.529c-0.434,0.353-0.649,0.829-0.649,1.429
		c-0.007,0.551,0.167,1.025,0.52,1.424C14.888,9.154,15.543,9.554,16.502,9.956z" fill="black"/>
</svg>
