<svg width="22" height="22" viewBox="0 0 22 22" fill="none" xmlns="http://www.w3.org/2000/svg">
<path d="M9.052,4.195v1.429C8.588,5.469,8.044,5.392,7.419,5.392c-1.466,0-2.576,0.442-3.33,1.327
		c-0.755,0.885-1.173,2.273-1.253,4.166h0.111c0.34-0.52,0.784-0.915,1.332-1.188c0.547-0.272,1.176-0.408,1.888-0.408
		c1.193,0,2.146,0.368,2.857,1.104c0.711,0.736,1.066,1.745,1.066,3.024c0,1.41-0.39,2.522-1.169,3.336
		c-0.779,0.812-1.824,1.22-3.136,1.22c-1.404,0-2.524-0.525-3.362-1.577c-0.839-1.051-1.258-2.52-1.258-4.407
		c0-2.653,0.519-4.644,1.555-5.97c1.035-1.327,2.589-1.99,4.661-1.99C8.044,4.028,8.601,4.083,9.052,4.195z M8.439,13.416
		c0-0.891-0.224-1.582-0.672-2.073c-0.449-0.492-1.097-0.738-1.944-0.738c-0.575,0-1.093,0.125-1.554,0.375
		c-0.461,0.251-0.812,0.566-1.053,0.946c-0.241,0.381-0.362,0.769-0.362,1.165c0,0.619,0.126,1.2,0.376,1.744
		c0.251,0.545,0.595,0.969,1.034,1.275s0.94,0.459,1.503,0.459c0.848,0,1.505-0.273,1.972-0.82S8.439,14.425,8.439,13.416z" fill="black"/>
<path d="M12.902,17.786v-1.429c0.513,0.167,1.069,0.25,1.67,0.25c1.478,0,2.594-0.443,3.349-1.33
		c0.755-0.889,1.166-2.27,1.233-4.143h-0.111c-0.692,1.051-1.771,1.577-3.237,1.577c-1.2,0-2.147-0.365-2.844-1.099
		c-0.695-0.732-1.043-1.733-1.043-3.001c0-1.404,0.391-2.519,1.173-3.345c0.783-0.825,1.836-1.238,3.159-1.238
		c1.392,0,2.505,0.526,3.34,1.577c0.835,1.052,1.253,2.521,1.253,4.407c0,2.653-0.52,4.643-1.559,5.971
		c-1.039,1.326-2.598,1.989-4.676,1.989c-0.291,0-0.604-0.017-0.942-0.052C13.33,17.887,13.075,17.842,12.902,17.786z M13.57,8.592
		c0,0.903,0.221,1.594,0.663,2.073c0.442,0.479,1.087,0.719,1.935,0.719c0.543,0,1.046-0.111,1.507-0.334s0.822-0.53,1.086-0.923
		c0.263-0.393,0.394-0.799,0.394-1.22c-0.006-0.587-0.126-1.153-0.361-1.698c-0.235-0.544-0.574-0.976-1.016-1.294
		c-0.442-0.318-0.951-0.478-1.526-0.478c-0.848,0-1.506,0.275-1.976,0.826C13.805,6.814,13.57,7.59,13.57,8.592z" fill="black"/>
</svg>
