<svg width="22" height="22" viewBox="0 0 22 22" fill="none" xmlns="http://www.w3.org/2000/svg">
<path d="M7.048,10.605c1.076,0.526,1.848,1.08,2.315,1.66c0.467,0.582,0.7,1.25,0.7,2.004c0,1.127-0.4,2.024-1.201,2.695
		c-0.802,0.672-1.883,1.007-3.243,1.007c-1.466,0-2.588-0.317-3.367-0.95c-0.779-0.635-1.169-1.533-1.169-2.695
		c0-0.779,0.233-1.471,0.7-2.074c0.467-0.603,1.17-1.121,2.11-1.554c-0.822-0.464-1.426-0.976-1.809-1.536
		c-0.384-0.56-0.572-1.195-0.566-1.906C1.513,6.273,1.882,5.489,2.628,4.905C3.373,4.32,4.352,4.028,5.563,4.028
		c1.237,0,2.224,0.291,2.96,0.872c0.735,0.582,1.104,1.373,1.104,2.375c0,0.681-0.208,1.293-0.626,1.837
		C8.584,9.656,7.933,10.154,7.048,10.605z M5.276,11.385c-0.897,0.384-1.548,0.811-1.953,1.28s-0.607,1.03-0.607,1.679
		c0,0.705,0.249,1.266,0.747,1.68c0.497,0.414,1.204,0.621,2.119,0.621c0.885,0,1.58-0.211,2.088-0.635
		c0.507-0.424,0.761-0.998,0.761-1.721c0-0.582-0.225-1.096-0.673-1.541s-1.174-0.862-2.176-1.252L5.276,11.385z M5.638,9.956
		c0.829-0.34,1.426-0.719,1.791-1.136c0.364-0.418,0.547-0.914,0.547-1.489c0-0.606-0.218-1.084-0.653-1.434
		C6.886,5.548,6.293,5.373,5.545,5.373c-0.729,0-1.312,0.176-1.744,0.529S3.151,6.731,3.151,7.331
		c-0.006,0.551,0.167,1.025,0.52,1.424C4.023,9.154,4.679,9.554,5.638,9.956z" fill="black"/>
<path d="M12.902,17.786v-1.429c0.513,0.167,1.069,0.25,1.67,0.25c1.478,0,2.594-0.443,3.349-1.33
		c0.755-0.889,1.166-2.27,1.233-4.143h-0.111c-0.692,1.051-1.771,1.577-3.237,1.577c-1.2,0-2.147-0.365-2.844-1.099
		c-0.695-0.732-1.043-1.733-1.043-3.001c0-1.404,0.391-2.519,1.173-3.345c0.783-0.825,1.836-1.238,3.159-1.238
		c1.392,0,2.505,0.526,3.34,1.577c0.835,1.052,1.253,2.521,1.253,4.407c0,2.653-0.52,4.643-1.559,5.971
		c-1.039,1.326-2.598,1.989-4.676,1.989c-0.291,0-0.604-0.017-0.942-0.052C13.33,17.887,13.075,17.842,12.902,17.786z M13.57,8.592
		c0,0.903,0.221,1.594,0.663,2.073c0.442,0.479,1.087,0.719,1.935,0.719c0.543,0,1.046-0.111,1.507-0.334s0.822-0.53,1.086-0.923
		c0.263-0.393,0.394-0.799,0.394-1.22c-0.006-0.587-0.126-1.153-0.361-1.698c-0.235-0.544-0.574-0.976-1.016-1.294
		c-0.442-0.318-0.951-0.478-1.526-0.478c-0.848,0-1.506,0.275-1.976,0.826C13.805,6.814,13.57,7.59,13.57,8.592z" fill="black"/>
</svg>
