<svg width="22" height="22" viewBox="0 0 22 22" fill="none" xmlns="http://www.w3.org/2000/svg">
<path d="M2.038,17.786v-1.429c0.514,0.167,1.07,0.25,1.67,0.25c1.479,0,2.595-0.443,3.35-1.33c0.754-0.889,1.165-2.27,1.233-4.143
		H8.18c-0.692,1.051-1.771,1.577-3.237,1.577c-1.2,0-2.147-0.365-2.844-1.099c-0.695-0.732-1.044-1.733-1.044-3.001
		c0-1.404,0.392-2.519,1.174-3.345c0.782-0.825,1.835-1.238,3.159-1.238c1.392,0,2.505,0.526,3.34,1.577
		c0.835,1.052,1.252,2.521,1.252,4.407c0,2.653-0.52,4.643-1.559,5.971c-1.039,1.326-2.598,1.989-4.676,1.989
		c-0.291,0-0.604-0.017-0.941-0.052C2.467,17.887,2.211,17.842,2.038,17.786z M2.706,8.592c0,0.903,0.222,1.594,0.664,2.073
		c0.441,0.479,1.086,0.719,1.934,0.719c0.544,0,1.047-0.111,1.508-0.334s0.822-0.53,1.086-0.923c0.263-0.393,0.394-0.799,0.394-1.22
		C8.285,8.32,8.164,7.754,7.93,7.21C7.694,6.666,7.355,6.234,6.914,5.916C6.472,5.597,5.963,5.438,5.388,5.438
		c-0.848,0-1.507,0.275-1.977,0.826C2.941,6.814,2.706,7.59,2.706,8.592z" fill="black"/>
<path d="M17.568,10.643v0.074c1.058,0.136,1.86,0.477,2.407,1.021c0.548,0.544,0.821,1.274,0.821,2.189
		c0,1.28-0.448,2.274-1.346,2.983c-0.896,0.707-2.183,1.062-3.858,1.062c-1.503,0-2.746-0.247-3.729-0.742v-1.559
		c0.575,0.291,1.191,0.514,1.851,0.668c0.658,0.155,1.291,0.231,1.897,0.231c1.144,0,2.004-0.223,2.578-0.668
		c0.576-0.445,0.863-1.115,0.863-2.013c0-0.798-0.317-1.396-0.951-1.796c-0.634-0.398-1.585-0.598-2.853-0.598h-1.308v-1.429h1.326
		c1.076,0,1.911-0.229,2.505-0.687c0.594-0.458,0.894-1.082,0.899-1.874c-0.006-0.649-0.229-1.156-0.668-1.521
		c-0.438-0.365-1.042-0.547-1.809-0.547c-0.6,0-1.161,0.083-1.684,0.25s-1.1,0.461-1.73,0.881l-0.835-1.132
		c1.219-0.94,2.629-1.41,4.23-1.41c1.336,0,2.37,0.302,3.104,0.904c0.732,0.604,1.099,1.421,1.099,2.454
		c0,0.86-0.239,1.569-0.719,2.129C19.181,10.075,18.483,10.451,17.568,10.643z" fill="black"/>
</svg>
