<svg width="22" height="22" viewBox="0 0 22 22" fill="none" xmlns="http://www.w3.org/2000/svg">
<path d="M2.038,17.786v-1.429c0.514,0.167,1.07,0.25,1.67,0.25c1.479,0,2.595-0.443,3.35-1.33c0.754-0.889,1.165-2.27,1.233-4.143
		H8.18c-0.692,1.051-1.771,1.577-3.237,1.577c-1.2,0-2.147-0.365-2.844-1.099c-0.695-0.732-1.044-1.733-1.044-3.001
		c0-1.404,0.392-2.519,1.174-3.345c0.782-0.825,1.835-1.238,3.159-1.238c1.392,0,2.505,0.526,3.34,1.577
		c0.835,1.052,1.252,2.521,1.252,4.407c0,2.653-0.52,4.643-1.559,5.971c-1.039,1.326-2.598,1.989-4.676,1.989
		c-0.291,0-0.604-0.017-0.941-0.052C2.467,17.887,2.211,17.842,2.038,17.786z M2.706,8.592c0,0.903,0.222,1.594,0.664,2.073
		c0.441,0.479,1.086,0.719,1.934,0.719c0.544,0,1.047-0.111,1.508-0.334s0.822-0.53,1.086-0.923c0.263-0.393,0.394-0.799,0.394-1.22
		C8.285,8.32,8.164,7.754,7.93,7.21C7.694,6.666,7.355,6.234,6.914,5.916C6.472,5.597,5.963,5.438,5.388,5.438
		c-0.848,0-1.507,0.275-1.977,0.826C2.941,6.814,2.706,7.59,2.706,8.592z" fill="black"/>
<path d="M19.916,4.195v1.429c-0.465-0.154-1.009-0.232-1.633-0.232c-1.467,0-2.576,0.442-3.331,1.327
		c-0.755,0.885-1.172,2.273-1.252,4.166h0.111c0.34-0.52,0.783-0.915,1.331-1.188c0.547-0.272,1.176-0.408,1.888-0.408
		c1.193,0,2.146,0.368,2.857,1.104c0.711,0.736,1.067,1.745,1.067,3.024c0,1.41-0.391,2.522-1.17,3.336
		c-0.779,0.812-1.824,1.22-3.135,1.22c-1.404,0-2.525-0.525-3.363-1.577c-0.838-1.051-1.257-2.52-1.257-4.407
		c0-2.653,0.518-4.644,1.554-5.97c1.036-1.327,2.59-1.99,4.662-1.99C18.907,4.028,19.464,4.083,19.916,4.195z M19.303,13.416
		c0-0.891-0.224-1.582-0.672-2.073c-0.449-0.492-1.097-0.738-1.943-0.738c-0.576,0-1.094,0.125-1.555,0.375
		c-0.46,0.251-0.812,0.566-1.053,0.946c-0.241,0.381-0.361,0.769-0.361,1.165c0,0.619,0.125,1.2,0.375,1.744
		c0.251,0.545,0.596,0.969,1.035,1.275c0.438,0.307,0.939,0.459,1.502,0.459c0.848,0,1.505-0.273,1.972-0.82
		S19.303,14.425,19.303,13.416z" fill="black"/>
</svg>
