<svg width="22" height="22" viewBox="0 0 22 22" fill="none" xmlns="http://www.w3.org/2000/svg">
<path d="M2.038,17.786v-1.429c0.514,0.167,1.07,0.25,1.67,0.25c1.479,0,2.595-0.443,3.35-1.33c0.754-0.889,1.165-2.27,1.233-4.143
		H8.18c-0.692,1.051-1.771,1.577-3.237,1.577c-1.2,0-2.147-0.365-2.844-1.099c-0.695-0.732-1.044-1.733-1.044-3.001
		c0-1.404,0.392-2.519,1.174-3.345c0.782-0.825,1.835-1.238,3.159-1.238c1.392,0,2.505,0.526,3.34,1.577
		c0.835,1.052,1.252,2.521,1.252,4.407c0,2.653-0.52,4.643-1.559,5.971c-1.039,1.326-2.598,1.989-4.676,1.989
		c-0.291,0-0.604-0.017-0.941-0.052C2.467,17.887,2.211,17.842,2.038,17.786z M2.706,8.592c0,0.903,0.222,1.594,0.664,2.073
		c0.441,0.479,1.086,0.719,1.934,0.719c0.544,0,1.047-0.111,1.508-0.334s0.822-0.53,1.086-0.923c0.263-0.393,0.394-0.799,0.394-1.22
		C8.285,8.32,8.164,7.754,7.93,7.21C7.694,6.666,7.355,6.234,6.914,5.916C6.472,5.597,5.963,5.438,5.388,5.438
		c-0.848,0-1.507,0.275-1.977,0.826C2.941,6.814,2.706,7.59,2.706,8.592z" fill="black"/>
<path d="M13.598,17.786l5.566-12.051h-7.319V4.213h9.101v1.299l-5.511,12.274H13.598z" fill="black"/>
</svg>
